<svg xmlns="http://www.w3.org/2000/svg" xmlns:xlink="http://www.w3.org/1999/xlink" viewBox="0 0 394.95 402.31"><defs><style>.cls-1,.cls-10,.cls-11,.cls-4,.cls-7,.cls-8,.cls-9{fill:none;}.cls-2{fill:#fff;}.cls-3{clip-path:url(#clip-path);}.cls-4{stroke:#7e0452;}.cls-10,.cls-11,.cls-4,.cls-7,.cls-8,.cls-9{stroke-miterlimit:10;stroke-width:0;}.cls-5{fill:#100717;}.cls-6{clip-path:url(#clip-path-2);}.cls-7{stroke:#f1eeed;}.cls-8{stroke:#b41060;}.cls-9{stroke:#d57746;}.cls-10{stroke:#962236;}.cls-11{stroke:#cf1262;}.cls-12{fill:#e2dddb;}.cls-13{fill:#ec008c;}.cls-14{fill:#7b2033;}.cls-15{fill:#f9ca54;}.cls-16{fill:#b12438;}.cls-17{fill:#0bafc2;}</style><clipPath id="clip-path" transform="translate(-113.33 -215.82)"><path class="cls-1" d="M266.51,275.79a1.29,1.29,0,0,0-.74.28l-.63.28a2.65,2.65,0,0,0-1.31.55l-1.65.83-1.89.82a2.75,2.75,0,0,1-.87.34l-1.93.48c-.68.08-1.36.19-2.06.34-2.87.58-5.87,1.13-8.62,1.73q-8.92,1.95-17.84,3.94c-1.79.4-4.12.82-7,1.27a1.16,1.16,0,0,0-.8.43,39.82,39.82,0,0,0-3.24,4.55c-.8,1.31-1.89,2.33-2.73,3.59a.47.47,0,0,1-.23.18,3.42,3.42,0,0,1-1.24.17q-5.86-.19-11.31-.11c-1.23,0-2.14-.4-3.26.48a12.06,12.06,0,0,0-1,.86q-5.18,5.22-9.46,9.77A26.27,26.27,0,0,0,186,310a.69.69,0,0,1-.57.31c-.66,0-1.39.06-2.18.15a99.56,99.56,0,0,0-10.77,1.81.75.75,0,0,1-.67-.16,13,13,0,0,1-1.76-1.72c-.66-.78-1.56-1.64-2.69-1.42a18.65,18.65,0,0,0-3.45,1q-3.94,1.56-9.16,4.05a30.3,30.3,0,0,0-2.72,1.55,5.14,5.14,0,0,1-2.77.71c-6.16-.18-11.61-.33-18.38-.25-1.79,0-2.51.73-3.1,2.39-.48,1.33-1.14,2.59-1.66,3.94-1.88,4.85-3.68,9.38-5.14,14.17-.59,1.93-1,3.74-.26,5.65q1.81,4.49,3.7,9.52a7,7,0,0,1,.35,1.16.37.37,0,0,1,0,.29,3.49,3.49,0,0,1-.65.92,15,15,0,0,0-2.64,3.74,4.43,4.43,0,0,0-.59,2,18.61,18.61,0,0,0,.25,2.62q1.57,9.25,3.75,20.12a19,19,0,0,0,1.62,4.2q2.65,5.85,5.39,12.34a13.43,13.43,0,0,0,1.71,2.7c.52.69.35,1.73.55,2.58q1.61,6.91,3.13,14c.28,1.34,2.11,1,3.11.7a5.36,5.36,0,0,0,2.71-2.56,67.54,67.54,0,0,0,3.47-6.72,21.59,21.59,0,0,1,1.5-2.79c.12-.17.18-.16.21.05a37.31,37.31,0,0,1,.26,4.18q.08,6.07-.09,11.09c-.05,1.33-.06,2.69,0,4.07a2,2,0,0,0,.44,1.35c.49.58,2,1.64,2.76,1a11.35,11.35,0,0,0,1.43-1.43c1.61-1.93,3.21-4.09,4.82-6.46,1.2-1.77,2.26-3.67,3.33-5.51,1.6-2.75,2.89-5.41,4.37-8.2a.08.08,0,0,1,.15,0,31.19,31.19,0,0,1,2.08,4.48q1.74,4.69,4.33,11.24,1.46,3.7,3.62,10.85.75,2.5,1.43,5.28,1.73,7.05,3.39,13.53a1.13,1.13,0,0,1-.28,1.21,3.54,3.54,0,0,0-1,1.07q-3.68,6.33-7.54,13.81a3.44,3.44,0,0,0-.29.89.2.2,0,0,1-.21.17,19.9,19.9,0,0,1-2.44-.09c-.69-.11-1.32,0-2-.13a7.19,7.19,0,0,0-1-.1,1.33,1.33,0,0,0-.4,0c-.33.08-.55-.07-.85-.11l-4.33-.54a13.41,13.41,0,0,1-1.4-.3c-.73-.17-1.48-.15-2.2-.37a5.79,5.79,0,0,0-1.1-.22,5.49,5.49,0,0,1-1.3-.32.63.63,0,0,0-.27,0,.8.8,0,0,1-.66-.17.45.45,0,0,0-.28-.1,2.51,2.51,0,0,1-.81-.08,12.17,12.17,0,0,0-1.7-.46c-.42-.08-.74-.35-1.17-.28a.35.35,0,0,1-.26-.08,1,1,0,0,0-.24-.17.41.41,0,0,0-.27,0,.6.6,0,0,1-.57-.17.4.4,0,0,0-.29-.1l-.26,0a.31.31,0,0,1-.24-.08.78.78,0,0,0-.44-.2,3.63,3.63,0,0,1-.45-.1c-2.44-.77-4.9-1.63-7.38-2.6-1.06-.41-2.18-.88-3.35-1.41a73.81,73.81,0,0,1-10.57-5.62c-.2-.14-.41-.27-.64-.41a.17.17,0,0,0-.25.16,8,8,0,0,1,0,1.62c-.11.78.13,1.41.09,2.18a1.43,1.43,0,0,0,.16.76q1.78,3.54,3.63,7.32a3.58,3.58,0,0,0,1,1.17c1.1.93,2.19,1.88,3.26,2.88,1.41,1.31,3,2.51,4.46,3.89s2.86,2.73,4.29,3.86c1.07.85,2.12,1.61,3.17,2.31q3.72,2.46,8.45,5.47c.91.58,1.89,1,2.79,1.57a20.57,20.57,0,0,0,2.1,1.11l5.21,2.4c.64.29,1.2.56,1.67.82s.69.25,1,.41a.44.44,0,0,1,.23.57c-.44,1.14-.92,2.24-1.42,3.32a23.53,23.53,0,0,1-3.5,5.37c-.53.62-1.06,1.24-1.59,1.89a3,3,0,0,0-.61,1.25,97.49,97.49,0,0,0-1.76,10.13,6.38,6.38,0,0,0,0,1.16,3.36,3.36,0,0,1-1.84,3.2c-1.14.56-2.72.49-4,.66a1.71,1.71,0,0,0-1.57,1.21,19.15,19.15,0,0,0-.84,5.62q-.1,18.33-.19,36.93c0,3.07,0,6.08,0,9.05a5.51,5.51,0,0,0,.29,1.84,11.36,11.36,0,0,0,.89,1.85q2.92,4.79,7.27,10.78c1.63,2.26,3.12,4,5.53,5.08a77,77,0,0,0,10.39,3.85,37.4,37.4,0,0,0,9.44,1.57,48.81,48.81,0,0,0,5.47-.18q4.44-.37,8.81-.82a14.2,14.2,0,0,1,3.92.17,76.65,76.65,0,0,1,17.83,5.39c2.09.94,3.77,1.74,5,2.41a44.59,44.59,0,0,1,7.64,5.18c.14.12.18.09.13-.08q-2.94-10.1-6.47-20.05a20.64,20.64,0,0,1-1.08-3.13.37.37,0,0,1,.21-.44,112.86,112.86,0,0,1,14.31-5.91,5.83,5.83,0,0,1,2.65-.53,6.05,6.05,0,0,0,1,.06q5.16-.08,11.51-.05a1.92,1.92,0,0,0,1.42-.57c1.37-1.41,3-3.24,4.85-5.47q4.13-4.95,7.57-8.91c.94-1.08,1.8-2.25,2.72-3.33q3.84-4.53,7.89-9.46c.57-.68,1.19-1.49,1.89-2.43a2.53,2.53,0,0,1,.8-.69c2.45-1.35,4.69-2.78,7.17-4a113.69,113.69,0,0,1,12.56-5.17q8.65-2.94,17.87-5.18c2.72-.66,5.5-1.13,8.22-1.7.19,0,.42,0,.6,0s.18-.11.09-.22q-3-4.12-7.17-9c-.51-.62-1.27-1.47-.95-2.34q1.21-3.28,2.64-6.66a.65.65,0,0,1,.44-.38c1.33-.34,2.57-.87,3.88-1.28a124.09,124.09,0,0,1,24.73-4.57c2.26-.23,4.56-.28,6.81-.31.33,0,.36-.1.09-.3a13.3,13.3,0,0,0-4.65-2.14q-2.7-.66-6.7-1.49c-.12,0-.13-.07,0-.14a14.63,14.63,0,0,1,2.6-1.31,49.1,49.1,0,0,1,7-2.3,191.3,191.3,0,0,1,28.24-4.51.22.22,0,0,0,.13-.37,7.86,7.86,0,0,0-1.69-1.34,31.73,31.73,0,0,1-3.75-2.66.08.08,0,0,1,0-.11,37.43,37.43,0,0,1,4.38-3.2,66.46,66.46,0,0,1,9.83-5.07c2.62-1.06,5.3-2.15,7.91-3q5.42-1.78,10.55-3.1,8.63-2.21,18.13-4.14,5.64-1.15,16-2.66c.12,0,.13-.06,0-.13-.55-.36-1.11-.7-1.69-1a167.81,167.81,0,0,0-16.11-7.52,93.84,93.84,0,0,0-9.93-3.27c-.15,0-.15-.1,0-.16,2.47-1.14,5-1.09,7.69-.81a30.93,30.93,0,0,1,4.23.5c.4.1.43,0,.08-.18a66.13,66.13,0,0,0-11.56-5.81c-3.09-1.2-5.43-2-7-2.5a49.93,49.93,0,0,1-6.1-2.26.22.22,0,0,1-.08-.31,57.6,57.6,0,0,1,7.59-8.89,66.48,66.48,0,0,1,11.52-8.57q2.41-1.41,4.86-2.7c6.6-3.48,13.53-5.72,20.47-8.2a8.09,8.09,0,0,0,1.62-.78.19.19,0,0,0,0-.3,1.86,1.86,0,0,0-1.12-.53c-2.8-.3-5.69-.6-8.54-.71q-8-.33-15.64-.32a.06.06,0,0,1-.05-.09,31.6,31.6,0,0,1,4.14-3.79,109.55,109.55,0,0,1,21.17-14,163.63,163.63,0,0,1,15.85-6.83,232.68,232.68,0,0,1,25.09-7.19c.29-.07.31-.18,0-.32a5.1,5.1,0,0,0-1.3-.5c-4-1-7.62-1.79-10.86-2.37l-13.36-2.44q-12.24-2.25-22.66-3.59-7.71-1-15.45-1.93c-5-.61-10.29-1.42-15-2a1.27,1.27,0,0,1-.93-.51,1.89,1.89,0,0,1,.57-2.72,12.83,12.83,0,0,1,2.9-1.25c.59-.21,1.18-.45,1.76-.71q15.36-7.09,30.48-14.1a3.35,3.35,0,0,1,.69-.25c3.08-.81,6.24-1.61,9.46-2.4,4.1-1,8-2.09,12-3.19,3.7-1,7.42-2.31,11.19-3.36a10.71,10.71,0,0,0,1.45-.53.2.2,0,0,0,.14-.2.22.22,0,0,0-.14-.22,5.61,5.61,0,0,0-1.44-.35q-7.68-.81-17.8-1.51a10.53,10.53,0,0,1-1.88-.29c-.27-.07-.33-.22-.16-.45a5.16,5.16,0,0,1,1.9-1.6,147,147,0,0,1,17.47-7.47c1.73-.63,3.46-1.22,5.22-1.78l12.52-3.94a19.81,19.81,0,0,0,2.45-.94c.13-.05.12-.09,0-.11a12.72,12.72,0,0,0-1.53-.11q-8.36-.14-22.46-.78c-1.79-.08-3.62-.17-5.5-.28l-21.14-1.21a.31.31,0,0,1-.26-.46,1.64,1.64,0,0,1,.59-.61q3.42-2.13,7.06-4.05c3-1.55,6-3.32,9.09-4.79l3.39-1.64a.05.05,0,0,0,0-.07l0-.06h0a12.63,12.63,0,0,1-3.08,1.12c-.86.17-1.69.38-2.51.62-5.36,1.53-10.26,3.34-15.31,5.08-.86.29-1.73.54-2.63.77a1,1,0,0,1-1.1-.34A19.36,19.36,0,0,0,443,314.1a.4.4,0,0,0-.23-.1,2.77,2.77,0,0,0-1,.06q-7.19,1.8-13.84,3.68a22.66,22.66,0,0,1-4.32.79,31.46,31.46,0,0,1-6.08-.07c-.11,0-.12-.06-.06-.14a8.08,8.08,0,0,1,1.07-1.11c1.68-1.43,3.47-2.71,5.22-4.13s3.49-2.78,5.21-4.06c2.14-1.58,4.32-3.43,6.51-4.74a7.88,7.88,0,0,1,.76-.4.23.23,0,0,0,.12-.3l-1-2.52a.79.79,0,0,1,.19-.88l12.94-11.42a.25.25,0,0,0-.11-.43,1,1,0,0,0-.46,0q-4.22,1.08-9.24,2.66l-10.91,3.43c-2.18.67-4.31,1.51-6.42,2.29-.93.34-2,.31-2.92.62q-3.19,1-8.13,2.5a94.31,94.31,0,0,0-10,3.68q-2.45,1.05-4.91,2.06c-.92.38-1.76.95-2.68,1.26a17.93,17.93,0,0,0-2,.79,53.5,53.5,0,0,1-6.15,2.68A.36.36,0,0,1,384,310a34.23,34.23,0,0,1-.92-5.17,3,3,0,0,0-.29-1,.54.54,0,0,1,.29-.73,10.86,10.86,0,0,0,2.68-1.19c1.64-1.16,3.3-2.27,5-3.35a1.82,1.82,0,0,0,1.16-.24c1-.46,2.07-.93,3.08-1.42s2.14-1,3.08-1.43l2.73-1.23q1.5-.67,2.73-1.17l4.57-1.81c1.62-.64,3.22-1.37,4.81-2.14a18,18,0,0,0,3-1.84,2.32,2.32,0,0,1,.66-.35,51.32,51.32,0,0,0,4.86-1.9,3.8,3.8,0,0,0,.49-.26,2.35,2.35,0,0,0,.67-.71,2,2,0,0,0,.52-.69,39.86,39.86,0,0,0,3.47-5.6,2.48,2.48,0,0,1,.34-.48,5.66,5.66,0,0,1,.49-.49q4.59-3.94,11.68-9.32,2.12-1.61,4.38-3.4,5.79-4.59,10.94-8.74c4.18-3.37,8.35-6.6,12.52-10.14q2.11-1.8,4.23-3.53c2-1.63,4-3.34,6.09-5.11q6.94-6,13.74-11.7a9.29,9.29,0,0,0,1.57-1.71c.16-.24.1-.34-.19-.29a37.88,37.88,0,0,0-4.25,1q-8.06,2.44-18.47,5.7-9.09,2.85-20.73,6.37c-2.26.68-4.63,1.29-6.92,2-1.69.52-3.43,1-5.2,1.54q-12.6,3.65-25.32,7.25c-1.78.5-3.8,1.07-6.05,1.68a34.24,34.24,0,0,0-7.79,3.49c-6.08,3.51-11.59,6.75-17.75,10.1-1,.55-2,1.13-3,1.72a14.16,14.16,0,0,1-4.4,2c-1.67.32-3.29.67-4.87,1s-3.21.71-4.9,1-3.67.7-5.49,1.08c-3.14.65-6.5.93-9.82,1.33a62.84,62.84,0,0,0-6.75,1.24,12.14,12.14,0,0,0-1.63.47,12.3,12.3,0,0,1-1.59.46q-6.76,1.51-13.09,2.83l-2,.39a.36.36,0,0,1-.33-.06.22.22,0,0,1,0-.31q4-4.77,8.16-10,3-3.84,8.45-10a27.14,27.14,0,0,1,2.23-2.28c.82-.73,1.65-1.46,2.49-2.17.18-.17.16-.23-.09-.2-1,.15-2.07.07-3.11.26-1.44.28-2.93.24-4.39.57-1.63.36-3.41.67-5.35.91a22.17,22.17,0,0,0-4.39,1.15q-12,4-24.08,7.62c-5,1.51-10.06,3.16-15,4.64a10.26,10.26,0,0,0-2.25,1c-4.71,2.81-9.58,5.27-14.56,7.66-.28.14-.63.11-.85.23a18.23,18.23,0,0,1-2.72,1.28Z"/></clipPath><clipPath id="clip-path-2" transform="translate(-113.33 -215.82)"><path class="cls-1" d="M459.82,240.13q-9.31,2.43-18.58,5.06-2.67.76-5.32,1.48c-8.05,2.19-15.94,4.52-23.93,6.59-1.12.28-2.22.6-3.33.94a13.42,13.42,0,0,0-3,1.43,277.25,277.25,0,0,1-27,14.83,15.65,15.65,0,0,1-2.09.79c-1,.29-1.74.48-2.17.56q-18.14,3.35-39.29,7.74-5.64,1.17-11.5,2.24a5.06,5.06,0,0,0-1,.28.18.18,0,0,0-.1.27c1.6,3.49,3.56,6.73,5.36,10.11,2.7,5,5.47,10,8.12,15.1,2,3.86,4.18,7.68,6.06,11.6q1.2,2.52,2.46,5a4.85,4.85,0,0,0,.32.69.21.21,0,0,0,.27.09c.63-.19,1.29-.16,1.92-.31q8.44-1.9,16.59-3.78a14.8,14.8,0,0,0,4.52-2c2.44-1.53,4.86-3,7.24-4.46a1.1,1.1,0,0,0,.51-1c-.51-5.28-1.15-9.75-1.77-14.66a.19.19,0,0,1,.1-.19,142.59,142.59,0,0,1,16.3-7.1,51.47,51.47,0,0,0,5.79-2.53q4.44-2.28,8.86-4.37c1.42-.67,2.76-1.49,4.18-2.23a19.48,19.48,0,0,0,5.21-3.87q3.75-4,7.62-8.64a18.21,18.21,0,0,1,3.59-3.25c2.23-1.54,4.54-3.05,6.91-4.53q10-6.21,20.81-12.05a39.35,39.35,0,0,0,3.59-2.3l1.36-1a.48.48,0,0,0,.15-.22,2.3,2.3,0,0,1,.62-1.06c1.34-1.31,2.77-2.74,4.28-4.31a17.58,17.58,0,0,0,1.42-1.75.1.1,0,0,0-.1-.16,13,13,0,0,0-2.14.24c-1,.24-1.9.5-2.84.79M284.87,282.78l-.07.23a14.89,14.89,0,0,0-1.47,1.25q-1.53,1.67-3.44,3.94a3.2,3.2,0,0,0-.82,1.8c0,.1,0,.15.14.14,1.07-.09,2.19-.23,3.37-.43,2.73-.46,6-1.1,9.89-1.91q9-1.89,19.39-4.22c.67-.15,1.38-.35,2.14-.58a.27.27,0,0,0,.11-.44,2.52,2.52,0,0,1-.79-2c0-.69,0-1.37,0-2a6.53,6.53,0,0,1,1.1-3.52,74.85,74.85,0,0,1,5-6.64q2.94-3.5,6.07-7.35c.15-.19.12-.23-.09-.11a6,6,0,0,1-.69.3q-11,3.59-16.86,5.29-6.39,1.88-12.61,3.67a22.52,22.52,0,0,0-2.58,1.11c-1.68.71-3.38,1.84-4.95,2.53-2.41,1.08-5.11,2.43-7.3,3.41q-5.52,2.44-11,4.79c-2.1.9-4.16,1.93-6.32,2.86a19.39,19.39,0,0,1-3,1q-3.86.91-8.4,1.69-2.58.45-11.51,2.52c-.55.13-1.75.29-1.84,1a14.25,14.25,0,0,0,.09,3.91.36.36,0,0,0,.35.29,19.9,19.9,0,0,0,2.44-.2q3.91-.54,7.92-1c1.24-.15,2.45-.38,3.68-.5l7.32-.69a5.73,5.73,0,0,0,1.44-.35q6.42-3.1,9.28-4.36,4.68-2.06,12.64-5.14a3.73,3.73,0,0,1,1.35-.3M291.25,304l-.5,0c-.14,0-.14,0,0,.09a1.06,1.06,0,0,0,.47.07c2.95.62,5.91,1.26,8.85,1.91,1.33.29,2.88.72,4.65,1.28a95.45,95.45,0,0,0,12.11,3,.07.07,0,0,1,0,.13,11.47,11.47,0,0,1-1.46,1q-1.26.61-2.43,1.26-2.94,1.61-6.95,4.12c-1.69,1.06-3.44,1.92-5,3s-3,2.08-4.41,3.12c-1.78,1.28-3.48,2.74-5.15,4.17a13.35,13.35,0,0,0-2.25,2.48.2.2,0,0,0,.08.29q6.21,2.73,12.5,5.44c2.47,1.07,4.59,2,6.35,2.87a.79.79,0,0,1,.36.26c.14.22.09.36-.16.44l-6.8,2.17c-2.53.81-5,1.87-7.46,2.81a7.94,7.94,0,0,0-3.85,2.81,28.22,28.22,0,0,1-3.76,4.5.36.36,0,0,1-.24.09,17.24,17.24,0,0,0-1.9-.07q-8.05.35-12.84.63c-2,.11-4.08.35-6.09.46q-7.31.39-14.61,1.26a.15.15,0,0,0-.11.22,28.75,28.75,0,0,1,1.58,3.5,45.53,45.53,0,0,0,3.31,7.06c.06.1,0,.16-.08.18a.3.3,0,0,1-.19,0q-4.31-2.25-9.26-4.41c-2.13-.93-4.06-2.13-6.11-3.23a3.82,3.82,0,0,1-1.59-2.43q-.9-2.81-1.9-5.66c0-.05,0-.1.08-.08a20.76,20.76,0,0,1,3.56,1.53,3.94,3.94,0,0,1,1.85,2,14.56,14.56,0,0,0,1.17,2.22c.61.95,2,1.3,3,1.69a.18.18,0,0,0,.25-.21,15.72,15.72,0,0,1,.08-4.49,1.28,1.28,0,0,0-.49-1.08,16.59,16.59,0,0,0-1.67-1.22c-1.17-.74-2.63-1.23-3.66-2a27.33,27.33,0,0,1-4.85-4.15c-1.22-1.46-2.42-2.89-3.57-4.29a35.12,35.12,0,0,0-4.27-4.12,14.43,14.43,0,0,0-2.47-1.67q-2.4-1.31-5.22-2.52a.33.33,0,0,1-.21-.33l0-1a.19.19,0,0,1,.22-.21c1.83,0,3.59,0,5.27,0a64,64,0,0,1,7.46.52c1.26.15,2.45.45,3.7.62a5.15,5.15,0,0,1,1.8.57c.1.05.12,0,.07-.08-.33-.64-.91-.91-1.37-1.42q-3.54-3.88-7.07-8a4.32,4.32,0,0,0-3.06-1.52c-2-.14-4-.08-5.92-.18q-6.06-.31-12.29-.6-9.45-.44-18.73-.28a82.48,82.48,0,0,0-16.34,1.92c-7.8,1.68-14.38,5.75-20.1,11.37-.25.25-.44.21-.58-.11a9.88,9.88,0,0,1-.62-2.11,25.58,25.58,0,0,1-.12-3.51c-.05-1.29-1.35-1.36-2.32-1.41-3.84-.23-7.7-.56-11.61-.56-1,0-1.93.27-3,.21a2.37,2.37,0,0,0-2.69,1.63c-.39,1.14-.76,2.45-1.11,3.94q-.47,1.94-1.6,8.37a10.66,10.66,0,0,0-.14,3.69,37.25,37.25,0,0,0,3,8.86,10.77,10.77,0,0,1,.86,7.06,1.8,1.8,0,0,1-.27.62c-.5.72-1,1.44-1.54,2.15a11.13,11.13,0,0,0-.81,1.62.7.7,0,0,0,.21,1,120.36,120.36,0,0,0,13,9.27,3.7,3.7,0,0,0,1.88.59c1.9,0,4.24,0,7-.24,5-.37,10-.39,15-.47a3.47,3.47,0,0,0,2.25-.64c1.84-1.34,3.82-2.89,5.94-4.67.93-.78,2-1.56,3-2.25q4.93-3.44,10.18-6.86c1.41-.92,2.87-1.73,4.27-2.63a3.1,3.1,0,0,0,1.32-1.63,42.61,42.61,0,0,0,1.35-5.11,42,42,0,0,1,1.59-5.67c.38-1.09.87-2.11,1.29-3.17a15.38,15.38,0,0,1,.79-1.65c.28-.51.57-1,.86-1.6q1.3-2.48,2.85-5.13a.35.35,0,0,0-.29-.52,6.83,6.83,0,0,0-4.67,1.51,35.21,35.21,0,0,0-7.76,7.11,21.43,21.43,0,0,0-2,3.1,6.32,6.32,0,0,1-3.35,2.53c-3.16,1.23-6.52,2.46-9.72,3.83l-4,1.68a10.68,10.68,0,0,0-2.73,1.54,38.16,38.16,0,0,0-5.32,5.94q-3.06,4.07-6.22,8.21a27.35,27.35,0,0,1-3.43,3.69.12.12,0,0,1-.15,0,22.08,22.08,0,0,1-5.87-4.6,91.45,91.45,0,0,1-6.14-7.88,55.68,55.68,0,0,1-4.93-9,26.37,26.37,0,0,1-2.52-10.05l-.2-2.47-.11-2.83a3.93,3.93,0,0,0,0-1.53c.24-.82,1-2.16,2-2a8.79,8.79,0,0,1,2.6.59,9,9,0,0,1,5.06,6c.46,1.74,1.17,3.42,1.74,5.11a45.86,45.86,0,0,0,2.39,5.65,18.88,18.88,0,0,0,1.59,2.66,2.61,2.61,0,0,0,2.18,1.12,2.88,2.88,0,0,0,2.54-1.52q1.48-2.07,2.94-4.16a44.68,44.68,0,0,1,8.44-9.08c.15,0,.42-.15.81-.47a51.13,51.13,0,0,1,5.14-3.29c.29-.17.7-.32,1-.54a4,4,0,0,1,.72-.41,19.3,19.3,0,0,0,1.82-.91,55.79,55.79,0,0,1,15-4.42,68.81,68.81,0,0,1,12-.64q5.85.22,13.74.88c.18,0,.22.1.1.24l-.27.34,0,0c-1.19,2.58-2.51,5.22-4,7.94a22.31,22.31,0,0,0-1.3,3c0,.11,0,.16.13.13,1.07-.27,2.11-.09,3.18-.45a5.19,5.19,0,0,1,4.21.5q4.14,3,8.33,5.88c.74.52,1.37,1.18,2.09,1.73a3.76,3.76,0,0,1,1.12,1.85q.09.25-.18.24a8.81,8.81,0,0,1-2.66-.54,16.07,16.07,0,0,0-2.79-.79,94.55,94.55,0,0,0-17.15-1.58.24.24,0,0,0-.25.25,6.2,6.2,0,0,0,.52,2.05q.63,1.38,1.23,2.85a.91.91,0,0,1-.12,1,19.46,19.46,0,0,1-5.31,3.51.79.79,0,0,0-.44.72v9.58a.72.72,0,0,0,.52.69,10.88,10.88,0,0,0,1.49.39c3.9.59,7.81,1,11.67,1.71,2.18.41,4.3.69,6.43,1.14q8.16,1.68,13.49,3.1,2.86.76,10.65,3.1c.39.12.9.28,1.54.5,1.28.44,2.63.81,3.86,1.25l5.7,2c.46.17.7.54,1.19.67,1.1.28,2.13.65,3.24.86a53.15,53.15,0,0,1,7.16,2.19c.23.08,1,.28,2.26.6a15.82,15.82,0,0,1,2.69,1q5.15,2.43,12.12,5.12c2.95,1.14,5.72,2.35,8.7,3.6a33,33,0,0,1,3.81,1.78c.89.56.88,1.45.89,2.54q.06,6,.06,11.64,0,28.62,0,57.25c0,.59.09,1.88.9,1.91a10.86,10.86,0,0,0,1.62-.08c3.18-.39,6.28-.74,9.3-1.07q5.5-.6,11.67-.87c.26,0,.28.05.05.17s-.69.14-1,.31c-1.44.76-2.88,1.55-4.31,2.35a111.27,111.27,0,0,1-12,5.92q-5.52,2.31-12.24,5.19Q288.79,482,283,484a1.57,1.57,0,0,0-.74.57,17.86,17.86,0,0,0-2.43,5.17c-.25.68-.54,1.39-.86,2.13q-3.14,7.25-6.19,14.53c-1.21,2.89-2.51,5.75-3.79,8.58a138.42,138.42,0,0,1-8.85,16.34,108.12,108.12,0,0,1-6.4,9.12,67.67,67.67,0,0,1-8.27,8.64c-2.93,2.6-5.94,5.42-9.12,7.81a78.27,78.27,0,0,1-18.08,10.2q-4.44,1.75-11.64,3.83c-.68.19-1.37.38-2.08.54a23.06,23.06,0,0,0-3.18,1c-.05,0-.07.07,0,.12a23.1,23.1,0,0,0,2.53,3c1.33,1.34,2.51,2.57,3.8,3.88a5.08,5.08,0,0,0,1.42,1,2,2,0,0,0,1.12.18,59.92,59.92,0,0,0,6.25-1.1c2.09-.5,4.2-1.06,6.32-1.66A46.22,46.22,0,0,0,228,576a81.55,81.55,0,0,0,21.51-13.46q5.09-4.42,8.3-7.72a78.29,78.29,0,0,0,7.33-8.48c.36-.5.55-1.28.87-1.67.72-.88,1.4-1.76,2.05-2.66.38-.54.88-.82,1.26-1.28a41.93,41.93,0,0,0,4.13-5.67q2.08-3.54,5.35-9.82,2.86-5.52,7.43-14.87,1.15-2.37,2.4-5,2.63-5.53,5.28-10.63,1.13-2.16,2.28-4.73a7.35,7.35,0,0,0,.55-1.73c.24-1.36,1-1.36,2.14-1.58q9.42-1.8,19.33-3.56l1.79-.29a6,6,0,0,0,3-1.39q3-2.6,5.86-5a74,74,0,0,1,7.22-5,47.06,47.06,0,0,1,8.65-4.19q6.18-2.31,12.6-4c.4-.1.51-.45,1-.44,1.17,0,2.31-.07,3.49,0q5.78.44,12,1.09a13.57,13.57,0,0,0,1.69.07c1.56,0,3.17,0,4.85,0,.18,0,.18,0,0,.11a11.77,11.77,0,0,1-1.9.31c-3.14.76-5.84,1.49-8.08,2.21q-8.61,2.76-18.38,6.48c-.48.18-1,.13-1.42.35-.12.06-.12.1,0,.1a3.63,3.63,0,0,0,1.47-.17,2.3,2.3,0,0,1,.92-.14,3.73,3.73,0,0,0,1,0c1-.15,2-.32,3-.5s2.06-.34,3-.45q13.57-1.59,27.16-2.94,3.27-.31,12.72-1a4.79,4.79,0,0,0,1.84-.19l19.7-.62c.37,0,.38-.07,0-.17-2.52-.7-5.11-1.29-7.8-1.76-4.62-.81-9-1.55-13.62-2.14q-9.72-1.28-19.52-2.45c-1.18-.14-2.36-.3-3.52-.46-2.06-.3-4-.46-6-.81s-4.2-.57-6.18-.92q-7.72-1.37-15.25-2.55c-1.81-.29-3.63-.6-5.46-.95q-7.44-1.39-14.48-2.64c-5.75-1-11.5-2.31-17.14-3.66a18.09,18.09,0,0,1-1.8-.53.33.33,0,0,1-.17-.47c2.1-3.7,4.52-7.18,6.94-10.89l3-4.5q2.83-4.25,5.48-8.85a4.14,4.14,0,0,0,.42-1c.11-.39,0-.49-.37-.29q-.87.5-1.68.87c-2.59,1.2-5.25,2.52-8,4a37.72,37.72,0,0,1-4.74,2,24.85,24.85,0,0,0-2.23,1.16s-.06,0-.09,0l0-.06v0a10.57,10.57,0,0,0,1.89-1.64q1.63-1.93,3.09-3.94,1.9-2.6,3.09-4a101.8,101.8,0,0,1,8-8.62c1.92-1.79,3.7-3.41,5.36-4.85,1-.84,2.93-2.43,5.86-4.74,1.5-1.19,3-2.28,4.43-3.29q6.6-4.57,13.54-8.64c.25-.15.53-.2.77-.35s.22-.24-.06-.28a8.41,8.41,0,0,1-1.11-.23q-5-1.41-11.21-3.44c-5.63-1.85-11.22-3.44-17.09-5.19q-14.84-4.41-28.05-7.61l-7.09-1.74a10.06,10.06,0,0,1-3.32-1.38c-.12-.08-.11-.14,0-.19s.58-.07.85-.16q5.27-1.73,11.9-4.1,7.1-2.53,16-4.75a89.75,89.75,0,0,1,24.7-2.85c2.31.08,4.5.22,6.59.4.94.09,1.89.21,2.85.38l2.82.47a37.83,37.83,0,0,1,11,3.47.6.6,0,0,0,.87-.31,120.72,120.72,0,0,1,7.37-11.71q.94-1.32,4.09-5.32c1.57-2,3.33-3.91,5-5.83,1.2-1.35,2.46-2.68,3.78-4,5-4.89,9.52-8.9,14.32-13.15,1-.93,2.36-2,3.94-3.17a16.9,16.9,0,0,0,1.42-1.19,8.08,8.08,0,0,1,1.57-1.16,2.1,2.1,0,0,0,.58-.49,4.48,4.48,0,0,1,.82-.75c4.12-2.87,6.95-4.72,8.46-5.56,1.11-.61,2.22-1.29,3.34-2a24.23,24.23,0,0,0,4.67-4.6.23.23,0,0,0-.13-.37,2.43,2.43,0,0,0-.85,0,142.38,142.38,0,0,0-18.8,5.65c-2.88,1.09-5.85,2.43-8.74,3.7-4.95,2.16-10.25,4.77-15.21,7.5-2.9,1.6-5.74,3.11-8.54,4.56a20.56,20.56,0,0,1-4.66,1.76c-6.72,1.58-13.45,3.54-21.14,6-2.72.87-5.47,1.89-8.13,2.84q-2.36.84-5.16,1.92c-2.36.91-4.92,1.84-7.71,2.8a1,1,0,0,1-.62,0,.15.15,0,0,1-.08-.24,15.76,15.76,0,0,1,2.59-2.5q2.28-1.75,4.36-3.39c.82-.64,1.81-1,2.61-1.68.33-.28.29-.38-.14-.3a21.79,21.79,0,0,1-2.33.43c-2.23.16-4.47.36-6.7.6a18.31,18.31,0,0,0-2.81.2c-1.26.35-2.85-1-3.53-1.88a48.21,48.21,0,0,0-3.11-3.8.16.16,0,0,1,.11-.26c3.39-.1,6.7-.33,9.91-.67l8.14-.87c1.11-.12,2.3-.3,3.57-.56.09,0,.11-.07.07-.15q-5.31-10.53-10.38-19.53-3.92-6.94-7.23-13.3a20.22,20.22,0,0,0-1.41-2.33.37.37,0,0,0-.21-.16,2.49,2.49,0,0,0-1.26-.1l-11.66,2.1c-5.19.93-10.39,2.08-15.47,3.14-5.58,1.16-11.55,2.18-16.68,3.4q-3.06.72-6.66,1.7a7.19,7.19,0,0,0-1.62.67c-3,1.67-6,3.26-8.91,5-2.58,1.52-5,3-7.41,4.3a8.41,8.41,0,0,0-3.17,3.09,28.85,28.85,0,0,0-2.92,6.85c-.37,1.28-.8,2.6-1.28,4-.08.22,0,.31.23.28a.93.93,0,0,0,.48-.25,28.56,28.56,0,0,0,2.24-2.18,47.8,47.8,0,0,1,9.11-7.51,114.32,114.32,0,0,1,12.83-7.54c3.17-1.53,6.07-3.28,9.22-4.59a17.5,17.5,0,0,1,5.17-1.47,53.54,53.54,0,0,1,17.35,1c.39.09.77.05,1.15.13.16,0,.16.06,0,.1l-7.71,2m-42,39.18a6.46,6.46,0,0,0-2.4,1.05.59.59,0,0,1-.24.16.12.12,0,0,0-.05.21,34.27,34.27,0,0,0,4,2.66,1.15,1.15,0,0,0,1,.13,33.85,33.85,0,0,1,9.21-1.55q4.11-.09,9.64-.17a14.92,14.92,0,0,0,1.78-.14.61.61,0,0,0,.53-.54c.28-3,3.33-6,5.55-8.09a6.32,6.32,0,0,0,1-1.27c.13-.22.06-.35-.19-.4a11.63,11.63,0,0,0-2.52-.09q-6.61.42-13,.88a13.69,13.69,0,0,0-5.46,1.52,23.87,23.87,0,0,0-3.58,2.81,17.79,17.79,0,0,1-5.3,2.83m-42.68,38.16c-.1,1.18-.28,2.28-.35,3.43q-.65,10.36-1.35,21.6-.28,4.46-1.05,9.12c0,.22.05.3.26.24a1.51,1.51,0,0,0,.45-.2,15.41,15.41,0,0,0,3.54-3.24,67.36,67.36,0,0,0,10.39-18,38.55,38.55,0,0,0,2.14-7.38c.33-2.32.52-4.36.6-6.12a2.71,2.71,0,0,0-.09-.75.37.37,0,0,0-.16-.22,18.77,18.77,0,0,0-1.77-1.18,23.78,23.78,0,0,0-4.44-1.54q-3.32-.84-6.69-1.39a1.72,1.72,0,0,0-.72,0,.25.25,0,0,0-.17.19,25.29,25.29,0,0,0-.59,5.38m-51.63,6.61c-.07.81-.11,1.44-.14,1.9q-.86,13.38-.9,26.56c0,.36.1.39.3.08l4.26-6.52c1.14-1.74,2.19-3.63,3.17-5.49a30.21,30.21,0,0,0,2-4.79,74.92,74.92,0,0,0,2.11-7.89c.22-.74.47-1.52.75-2.33a8.91,8.91,0,0,0,.36-2.33.38.38,0,0,0-.07-.25,8.19,8.19,0,0,0-1.58-1.6q-3.49-2.76-6.95-5.32a1.41,1.41,0,0,0-2,.12,2.22,2.22,0,0,0-.44,1.15c-.39,2.41-.68,4.64-.85,6.71m76.31-2.67a12.82,12.82,0,0,0-.74,6q.15,1.68.52,6.75a5,5,0,0,0,.13.86.19.19,0,0,0,.29.11,19.85,19.85,0,0,0,6.46-6.4,18.53,18.53,0,0,0,1.85-4.26l1.56-3.59a.62.62,0,0,0-.32-.81c-.8-.35-1.6-.67-2.41-1-1.91-.69-3.6-1.87-5.57-2.41a.12.12,0,0,0-.17.1,17.7,17.7,0,0,1-1.6,4.6m13.64,12.2-.76,1.66a.31.31,0,0,0,0,.25,17.8,17.8,0,0,0,1.13,2.78q2.58,4.71,5.2,9.73c1.21,2.31,2.27,4.68,3.46,7a60.23,60.23,0,0,1,2.41,5.53,5.43,5.43,0,0,0,.56,1.07.13.13,0,0,0,.22,0,6.41,6.41,0,0,0,.78-2.29,43.08,43.08,0,0,0,.35-8.79,72.75,72.75,0,0,0-1-8.28,61.66,61.66,0,0,0-2.2-9.76,14.93,14.93,0,0,1-.59-2.56,2.5,2.5,0,0,0-.39-1.71,1.74,1.74,0,0,1-.42-.78.29.29,0,0,0-.13-.19,11.22,11.22,0,0,1-1.05-.91,16,16,0,0,0-3.18-2.4.29.29,0,0,0-.41.14l-3.93,9.5m-35.25,57.24q-1.83,1.71-3.48,3.56a9.33,9.33,0,0,0-1.09,1.49s0,0-.06,0h0s0,0,0-.05a41.17,41.17,0,0,1,7.91-9.6s0,0,0,0h0s0,0-.09,0a40.89,40.89,0,0,0-5.4,5.37,22.55,22.55,0,0,0-4.24,8.21,1.28,1.28,0,0,1-.39.59,37.33,37.33,0,0,1-14.72,8,.23.23,0,0,0-.16.18.74.74,0,0,1-.61.63,85.84,85.84,0,0,1-16.73,1.12c-1.39-.05-2.84-.08-4.23-.2a100.08,100.08,0,0,1-32.38-8.2c-.14-.06-.16,0-.05.07,1.7,1.7,3.45,3.3,5.23,4.78a16.35,16.35,0,0,1,2,1.58,22.59,22.59,0,0,0,3.09,2.88A121.36,121.36,0,0,0,159,484.6q8.63,5,17.65,9.12a3.46,3.46,0,0,0,.91.19,26.37,26.37,0,0,0,3,.18,97.66,97.66,0,0,0,12.22.08c.43,0,.44-.09,0-.2a54.61,54.61,0,0,1-7.57-2.6,63.25,63.25,0,0,1-19.36-12.71.07.07,0,0,1,0-.12.53.53,0,0,1,.28,0A69.26,69.26,0,0,0,177.58,483a71.82,71.82,0,0,0,25.21,2.83q2.11-.14,3.87-.42A70.57,70.57,0,0,0,232.51,477a43.41,43.41,0,0,0,6.13-4.05c.71-.56.66-.65-.16-.25q-2.16,1-5,2.07a1.83,1.83,0,0,1-.77.15c-.26,0-.28-.12-.06-.26a80.06,80.06,0,0,0,13-10.41s0,0,0,0,0,0,0,0a146.39,146.39,0,0,1-33.37,14.21l-1.37.38a45.35,45.35,0,0,1-10,2,4.34,4.34,0,0,1-1.24-.07c-.4-.09-.41-.19,0-.32q6.68-2.19,13.13-4.73a118.63,118.63,0,0,0,14-6.37,61.4,61.4,0,0,0,16.06-12.07c.23-.25.2-.28-.09-.11L241,458.18a117.29,117.29,0,0,1-26,11.8,97.07,97.07,0,0,1-10.76,2.78s0,0,0,0h0s0,0,0-.05a50.64,50.64,0,0,0,12.09-5.81c1.24-.76,2.41-1.52,3.49-2.27a113.11,113.11,0,0,0,12.2-9.79,12,12,0,0,0,.87-.9l3.84-4.45a14.59,14.59,0,0,1,2.66-2.38,4,4,0,0,1,3.26-.69c.13,0,.17,0,.1-.14a14.26,14.26,0,0,1-1.08-2.52q0-.17-.21-.09a25.29,25.29,0,0,1-8.5,1.75c-2.33.14-4.56.36-6.71.66a21.94,21.94,0,0,0-5.69,1.66,39.33,39.33,0,0,0-11,7M257.3,480a44.12,44.12,0,0,0,2.18,7.76,4.24,4.24,0,0,0,.63,1.14.23.23,0,0,0,.39,0q3-5,5.95-9.7a3.69,3.69,0,0,0,.45-2.83l-.14-4.43a.17.17,0,0,0-.26-.14q-2.75,1.5-5.1,2.84c-.9.51-1.77,1-2.59,1.55a3.92,3.92,0,0,0-1.59,1.7,5,5,0,0,0,.08,2.14m-31.54,50.36a41.45,41.45,0,0,0,3.34,6.9,1.06,1.06,0,0,0,1.14.49c1.43-.18,2.8-.4,4.12-.68s2.68-.26,4-.52a.14.14,0,0,0,.11-.18l-2.33-6.81q-1.55-5.5-1.84-7a136.31,136.31,0,0,1-2.22-15,3.91,3.91,0,0,0-.27-1.07.16.16,0,0,0-.27,0,5.73,5.73,0,0,0-.88,1.58q-1.68,4.54-3.27,9.51c-.89,2.8-1.59,5.42-2.12,7.87a9,9,0,0,0-.27,3,11,11,0,0,0,.72,1.94m-29.43,25.54.71,2.35a.4.4,0,0,0,.41.3c.65,0,1.23-.11,1.74-.19l1.35-.17a6.81,6.81,0,0,0,1.3-.27,28.81,28.81,0,0,1,2.92-.53,30.25,30.25,0,0,0,6.62-1.64.16.16,0,0,0,.07-.26l-1.25-1.63a188.35,188.35,0,0,1-10.91-17.74c-1.17-2.17-2.49-4.68-3.95-7.55a1.88,1.88,0,0,0-.45-.56c-.08-.07-.14,0-.17,0a5.43,5.43,0,0,0-.19.85,73.77,73.77,0,0,0,1.8,27m15.85-14.06a7,7,0,0,0,1.08.44c2.2.73,4.48,1.53,6.86,2.38,1.63.58,3.11,1.43,4.73,2a1.6,1.6,0,0,0,1,0,4.32,4.32,0,0,0,2.29-1.5.27.27,0,0,0,0-.23,4,4,0,0,0-.54-1.12,26.82,26.82,0,0,1-3.73-6.75c.24-.28.31-.53.21-.74a15.92,15.92,0,0,1-1-2.36c-.26-.86-.54-1.72-.83-2.59-.06-.19-.16-.21-.31-.07l-3.54,3.28a55.81,55.81,0,0,0-6.38,6.95.15.15,0,0,0,0,.21l.1.05Z"/></clipPath></defs><g id="Layer_1" data-name="Layer 1"><path class="cls-2" d="M474.56,315.69q7.67.35,15.54.65,4.8.18,9.62.23a8.56,8.56,0,0,1,2.28.28c.5.14,1,.26,1.52.36a3.93,3.93,0,0,1,1.39.57A7.8,7.8,0,0,1,507.2,320a4.09,4.09,0,0,1,.61,1.44,15.09,15.09,0,0,0,.39,1.61,2.2,2.2,0,0,1,0,1.22c-.15.54-.28,1.08-.38,1.62a4,4,0,0,1-.6,1.4,7.93,7.93,0,0,1-2.46,2.43,4.5,4.5,0,0,1-1.18.55c-.54.16-1.06.4-1.6.57l-15.93,5a.12.12,0,0,0,0,.23,6.79,6.79,0,0,1,2.35,2.13,4.73,4.73,0,0,1,.82,2,13.35,13.35,0,0,0,.34,1.42c.29,1-.22,2.18-.41,3.18a4.08,4.08,0,0,1-.69,1.59,7.93,7.93,0,0,1-1.81,1.88,7.15,7.15,0,0,1-2.32,1.06c-1.77.48-3.56,1-5.25,1.56s-3,1-4.18,1.3q-10.86,2.91-22.17,5.67a14.75,14.75,0,0,0-2.73,1L432.43,367c-.12.06-.12.09,0,.11q14.67,1.79,21.4,2.89,14.77,2.44,27.84,5c2.9.56,6.37,1.33,10.38,2.3a12.26,12.26,0,0,1,3,1.06,7.88,7.88,0,0,1,2.5,2.28,4,4,0,0,1,.69,1.54c.12.59.27,1.2.44,1.82.27,1-.22,2.08-.41,3.06a6.25,6.25,0,0,1-2.74,3.59,6.57,6.57,0,0,1-2.25.85c-2.68.55-5.32,1.29-8,2a152.32,152.32,0,0,0-32.25,11.95A92.21,92.21,0,0,0,444.9,410q-.19.12,0,.15c1.18.14,2.41.27,3.68.37a15.46,15.46,0,0,1,2.23.36,10.19,10.19,0,0,1,3,1,8.59,8.59,0,0,1,2.64,2.36,4.49,4.49,0,0,1,.84,1.88c.16.92.64,1.94.38,2.86-.16.58-.3,1.17-.41,1.78a4.13,4.13,0,0,1-.68,1.56,8.08,8.08,0,0,1-3.75,3c-2.48,1-5.24,1.93-8.26,2.94A106.5,106.5,0,0,0,433.14,433q-1.32.63-4.9,2.64c-1.85,1-3.42,2-4.69,2.88a53.13,53.13,0,0,0-7.3,6.06.12.12,0,0,0,0,.2,75.6,75.6,0,0,1,16.29,7.54,8.25,8.25,0,0,1,2.25,1.83,5.74,5.74,0,0,1,1.26,2.21c.16.78.34,1.57.54,2.38a.3.3,0,0,0,.19.22q4.68,2,10.73,5.3a21.8,21.8,0,0,1,2.3,1.43,4,4,0,0,1,.93,1,4.93,4.93,0,0,1,.94,1.56c.15.72.33,1.46.53,2.22.26,1-.25,2.23-.45,3.21a4.09,4.09,0,0,1-.73,1.53,7.39,7.39,0,0,1-1.88,1.82,4.39,4.39,0,0,1-1.57.66c-.76.15-1.51.37-2.31.48q-9,1.26-16.37,2.67c-1.25.24-4,.85-8.33,1.82-1.05.24-2.11.5-3.17.78-1.43.38-2.95.66-4.31,1q-8.7,2.43-11.46,3.46c-2.43.9-4.69,1.79-6.78,2.65a50.15,50.15,0,0,0-4.87,2.38.17.17,0,0,0-.08.21c.26.81.51,1.71.74,2.72a3.12,3.12,0,0,1,0,1.49c-.16.6-.29,1.15-.39,1.63a3.79,3.79,0,0,1-.62,1.46,7.69,7.69,0,0,1-2.11,2.14,5.08,5.08,0,0,1-1.94.78c-.91.17-1.77.42-2.69.5A189,189,0,0,0,364,506.44a.15.15,0,0,0-.14.2,6.9,6.9,0,0,1,.42,2.78c-.19.76-.37,1.49-.52,2.19a5.52,5.52,0,0,1-1.05,1.75,7.12,7.12,0,0,1-1.83,1.58,2.31,2.31,0,0,1-.84.4,16.86,16.86,0,0,1-4,.69,59.93,59.93,0,0,0-6.36.32q-6.6.66-12.61,1.7a62.7,62.7,0,0,0-10.31,2.67.86.86,0,0,0-.61.93.36.36,0,0,0,.09.24c1.48,1.74,2.92,3.57,4.34,5.51a12,12,0,0,0,.9,1.1,11.82,11.82,0,0,1,1.11,1.37,3.53,3.53,0,0,1,.61,1.44c.18.93.68,2.1.42,3-.16.55-.29,1.12-.4,1.69a3.94,3.94,0,0,1-.64,1.56,6.34,6.34,0,0,1-2.75,2.42,11,11,0,0,1-2.54.67l-2.71.42c-2.14.41-4.42.83-6.59,1.39q-9.11,2.37-15.72,4.67-1.44.51-5.26,2c-2.6,1-5.18,2.28-7.74,3.48q-1.28.6-4.61,2.63a3.72,3.72,0,0,0-1.09,1q-1.47,2-3,3.75-3.11,3.63-6.33,7.57c-3.36,4.11-6.8,8-10.24,12.17-1.3,1.57-2.69,3-4,4.55a12.43,12.43,0,0,1-2.5,2.14,3.68,3.68,0,0,1-1.17.52c-1.14.3-2.19.54-3.16.73a5,5,0,0,1-1,.08c-4.16,0-6.93,0-8.28,0-1,0-2,0-3.09,0a3.68,3.68,0,0,0-1.37.22c-2.71,1-5.23,2-7.58,2.92a.14.14,0,0,0-.08.18c.82,2.53,1.72,5.05,2.49,7.58s1.61,5.18,2.48,7.81a42.3,42.3,0,0,1,1.16,4.11,2.81,2.81,0,0,1,0,1.44,14.57,14.57,0,0,0-.35,1.45,3.63,3.63,0,0,1-.47,1.25,7.07,7.07,0,0,1-2.18,2.3,4.11,4.11,0,0,1-1.55.66c-.58.12-1.14.25-1.69.4-1,.27-2.12-.23-3.1-.41a3.65,3.65,0,0,1-1.41-.61,18.05,18.05,0,0,1-1.82-1.43,15.41,15.41,0,0,0-1.66-1.3,39.82,39.82,0,0,0-5-2.92c-2.15-1-4.36-2.07-6.56-2.95a62,62,0,0,0-13.53-3.73,7.74,7.74,0,0,0-1.76-.05c-2.05.14-4.11.43-6.16.61l-4.7.4a33.42,33.42,0,0,1-5.16.06,42.86,42.86,0,0,1-5.27-.74,78,78,0,0,1-15.71-5,19.29,19.29,0,0,1-7.4-5.63c-.87-1.09-1.68-2.16-2.41-3.23l-1.58-2.32q-2.86-4.09-5.53-8.39a17.2,17.2,0,0,1-1.66-4.84,7.3,7.3,0,0,1-.21-1.65c0-.59,0-1.15,0-1.69q0-21.24.07-39.44c0-1.09,0-2.14.06-3.14,0-1.42,0-2.9.2-4.27a36.13,36.13,0,0,1,1.28-5.91,4.69,4.69,0,0,1,.72-1.45,9.27,9.27,0,0,1,1.52-1.86l1.33-1a10.06,10.06,0,0,1,3.54-1.13.19.19,0,0,0,.16-.18,88.45,88.45,0,0,1,2.28-11.49,1.31,1.31,0,0,1,.17-.4,47.52,47.52,0,0,1,3.82-5,.15.15,0,0,0-.06-.22,36.91,36.91,0,0,1-4.23-2.09c-.84-.5-1.77-.8-2.59-1.34l-4.83-3.25c-1-.68-2-1.35-3.1-2-1.32-.84-2.81-1.88-4.45-3.12a41.64,41.64,0,0,1-3.86-3.34c-1.81-1.74-3.73-3.44-5.78-5.07a5.87,5.87,0,0,1-.68-.65c-.24-.26-.54-.43-.8-.69a19.41,19.41,0,0,0-1.57-1.41,10.94,10.94,0,0,1-2.81-3.67c-.86-1.76-1.75-3.57-2.7-5.4a14.48,14.48,0,0,1-1.31-3.58,17.91,17.91,0,0,1-.38-4.82,22.87,22.87,0,0,1,.63-3.28,3.09,3.09,0,0,1,.58-1.29,7.07,7.07,0,0,1,1.18-1.42,6,6,0,0,1,2.12-1.28c1-.2,2.29-.73,3.28-.46a12.38,12.38,0,0,1,3.31,1c1.4.85,2.81,1.83,4.27,2.6a92.79,92.79,0,0,0,23.09,8.58,86.17,86.17,0,0,0,9.46,1.54c.29,0,.52-.08.79,0a6.18,6.18,0,0,0,1.12.12.23.23,0,0,0,.21-.13q2.79-5.43,6-10.85a.29.29,0,0,0,0-.24q-1.25-5.07-2.51-10.16-1.16-4.62-2.84-9.62c-1-2.87-1.94-5.61-3-8.22,0-.11-.09-.11-.16,0a106.41,106.41,0,0,1-6.7,9.1,13.71,13.71,0,0,1-2.67,2.36,4,4,0,0,1-1.55.7c-1,.19-2.22.71-3.26.46s-2-.47-2.87-.7a9.59,9.59,0,0,1-4.78-3.89,5.48,5.48,0,0,1-.77-1.68,24.07,24.07,0,0,1-.68-3.53c0-.11-.07-.16-.19-.12a6.84,6.84,0,0,1-3.44.26c-.68-.18-1.4-.35-2.15-.5a4.89,4.89,0,0,1-2-1,8.65,8.65,0,0,1-2-2.25,5.9,5.9,0,0,1-.79-1.9q-1.63-7.57-3.37-14.93a3.9,3.9,0,0,0-.59-1.44,11.75,11.75,0,0,1-1.27-2.2q-2.32-5.53-4.88-11.28c-.31-.69-.62-1.35-.93-2a22.38,22.38,0,0,1-1.75-5.82q-2.22-10.76-3.83-20.42a10,10,0,0,1,0-4.35,19,19,0,0,1,.89-3.11,15.67,15.67,0,0,1,1.88-3.12.31.31,0,0,0,0-.28q-1-2.78-2.17-5.49a28.32,28.32,0,0,1-1.29-4.64,7.16,7.16,0,0,1,0-3.09,69.15,69.15,0,0,1,2.73-9.57q1-2.77,3.69-9.7c.54-1.41,1.22-2.74,1.75-4.11a7.09,7.09,0,0,1,.87-1.59,8.94,8.94,0,0,1,1.58-1.92,8.48,8.48,0,0,1,3.06-1.8c.78-.16,1.53-.34,2.23-.52a9.59,9.59,0,0,1,2.23-.25q8.37-.12,17,.29a1.15,1.15,0,0,0,.65-.17,21.89,21.89,0,0,1,2.09-1.22c3.56-1.73,6.86-3.18,9.93-4.37A43.5,43.5,0,0,1,167,302a3.32,3.32,0,0,1,1.5,0l2.76.67a2.66,2.66,0,0,1,.91.45l2.26,1.63a.41.41,0,0,0,.31.06,51.42,51.42,0,0,1,7.07-1.17.51.51,0,0,0,.37-.18c.43-.52.86-1,1.28-1.47q5.37-5.81,9.74-10.1a19.44,19.44,0,0,1,2.65-2.11,5.33,5.33,0,0,1,1.83-.82c.89-.21,1.78-.41,2.67-.59a11.33,11.33,0,0,1,1.93,0q4.37-.13,9.21.08a.28.28,0,0,0,.25-.13,47.62,47.62,0,0,1,4.57-6.28,6.73,6.73,0,0,1,3.1-1.89c1-.2,2.07-.49,3.13-.66q4.06-.66,5.42-1,11.19-2.51,21.72-4.75c1.27-.27,3.17-.56,4.75-1a6.52,6.52,0,0,1,1.23-.18c1.78-.07,3.37-1.15,4.92-1.89s3.45-1.33,5-2.14c1-.53,2-.83,3-1.35s2.28-1.19,3.56-1.82q4.78-2.38,9.72-5.26a13.4,13.4,0,0,1,3.09-1.19c3.9-1.05,7.72-2.42,11.59-3.59q13.8-4.17,27.35-8.64a38.51,38.51,0,0,1,6.31-1.44c1.62-.23,3.24-.45,4.86-.83a22.32,22.32,0,0,1,3.31-.54c1.32-.1,2.57-.42,3.94-.42a6.54,6.54,0,0,1,1.51-.12q.87.24,1.8.42a4.31,4.31,0,0,1,1.63.66,7.77,7.77,0,0,1,2.09,2,4.2,4.2,0,0,1,.71,1.53c.11.58.25,1.14.4,1.69.27,1-.23,2.07-.41,3.05a3.32,3.32,0,0,1-.63,1.4,10.74,10.74,0,0,1-1.54,1.84,36.29,36.29,0,0,0-3.69,3.33c-1.52,1.76-3,3.49-4.48,5.17-.11.13-.09.17.08.13a66.56,66.56,0,0,1,8.29-1.51,71,71,0,0,0,10.54-1.62c1.7-.43,3.45-.61,5.18-1,2-.46,4.05-.89,6.09-1.31a6.63,6.63,0,0,0,1.81-.65c1.81-1,3.64-2.13,5.46-3.1,2.1-1.13,4.25-2.32,6.43-3.56q5.07-2.91,10.22-5.93a50.19,50.19,0,0,1,4.82-2.52A48.34,48.34,0,0,1,406.4,241c1.24-.32,2.47-.67,3.71-1q11.42-3.33,22.86-6.59,2.59-.74,5.29-1.55c2.68-.82,5.33-1.54,8-2.34q12.38-3.72,27.13-8.34l8.56-2.67c3.33-1,6.63-1.86,9.95-2.6a1.83,1.83,0,0,1,.9,0c.61.15,1.24.3,1.91.43a4.48,4.48,0,0,1,1.75.74,7.85,7.85,0,0,1,1.9,1.87,4.73,4.73,0,0,1,.83,1.87,6.28,6.28,0,0,1,.34,2.74c-.17.63-.31,1.24-.43,1.84a4.06,4.06,0,0,1-.72,1.55,14.79,14.79,0,0,1-2.14,2.57Q488.58,236,480.4,243c-.8.68-1.62,1.36-2.46,2-.57.45-1.11.91-1.63,1.37-1.23,1.09-2.58,2.05-3.76,3.11-2.2,2-4.6,3.86-6.8,5.61-4.88,3.89-9.12,7.37-13.68,10.94-2.62,2.06-5.19,4.16-7.86,6.17q-5.35,4-10.74,8.49a5,5,0,0,0-1.43,1.48,31.41,31.41,0,0,1-2.71,4.24c-.13.18-.09.24.12.17q7.05-2.24,13-4c1.76-.52,3.51-1,5.3-1.36a8.42,8.42,0,0,1,3.29.46,5.76,5.76,0,0,1,2.13,1.25,6.85,6.85,0,0,1,1.39,1.68,2.81,2.81,0,0,1,.47,1c.17.8.35,1.59.54,2.38a1.46,1.46,0,0,1,0,.72c-.18.69-.33,1.36-.46,2a4.08,4.08,0,0,1-.66,1.56,8.84,8.84,0,0,1-1.44,1.71q-4.54,3.94-9.73,8.55a.28.28,0,0,0-.08.31,1.88,1.88,0,0,1,.07,1c-.21.85-.41,1.69-.62,2.54,0,.11,0,.16.13.14,1.11-.16,2.11-.51,3.18-.75,6.32-1.42,12.63-2.87,19-4.22,1.38-.29,2.75-.62,4.12-1,.3-.08.53-.27.85-.34.72-.16,1.46-.34,2.22-.53a2.16,2.16,0,0,1,1.13,0c.64.18,1.29.33,1.93.45a6.12,6.12,0,0,1,2.3,1.3,7.45,7.45,0,0,1,1.54,1.82,3,3,0,0,1,.52,1.16c.21.91.42,1.82.62,2.72a6.82,6.82,0,0,1-.38,2.89,4,4,0,0,1-.62,1.52,6.78,6.78,0,0,1-1.22,1.46c-.74.62-1.59,1.26-2.54,1.92-.29.2-.58.25-.87.42s-.15.14,0,.15Z" transform="translate(-113.33 -215.82)"/><g class="cls-3"><path class="cls-4" d="M423.05,283.37a1,1,0,0,0-.52.69m0,0c-.26,0-.49.26-.67.71m-30,13.55-1.16.24M257.49,279.37a5,5,0,0,0,1.93-.48m.87-.34,1.89-.82m1.65-.83,1.31-.55m.63-.28a1.64,1.64,0,0,0,.74-.28" transform="translate(-113.33 -215.82)"/></g><path class="cls-5" d="M423.05,283.37a1,1,0,0,0-.52.69c-.26,0-.49.26-.67.71a3.8,3.8,0,0,1-.49.26,51.32,51.32,0,0,1-4.86,1.9,2.32,2.32,0,0,0-.66.35,18,18,0,0,1-3,1.84c-1.59.77-3.19,1.5-4.81,2.14l-4.57,1.81q-1.23.49-2.73,1.17L398,295.47c-.94.42-2,.9-3.08,1.43s-2,1-3.08,1.42l-1.16.24c-1.67,1.08-3.33,2.19-5,3.35A10.86,10.86,0,0,1,383,303.1a.54.54,0,0,0-.29.73,3,3,0,0,1,.29,1A34.23,34.23,0,0,0,384,310a.36.36,0,0,0,.54.29,53.5,53.5,0,0,0,6.15-2.68,17.93,17.93,0,0,1,2-.79c.92-.31,1.76-.88,2.68-1.26q2.46-1,4.91-2.06a94.31,94.31,0,0,1,10-3.68q4.94-1.47,8.13-2.5c1-.31,2-.28,2.92-.62,2.11-.78,4.24-1.62,6.42-2.29L438.65,291q5-1.58,9.24-2.66a1,1,0,0,1,.46,0,.25.25,0,0,1,.11.43l-12.94,11.42a.79.79,0,0,0-.19.88l1,2.52a.23.23,0,0,1-.12.3,7.88,7.88,0,0,0-.76.4c-2.19,1.31-4.37,3.16-6.51,4.74q-2.58,1.92-5.21,4.06c-1.75,1.42-3.54,2.7-5.22,4.13a8.08,8.08,0,0,0-1.07,1.11c-.06.08-.05.13.06.14a31.46,31.46,0,0,0,6.08.07,22.66,22.66,0,0,0,4.32-.79q6.66-1.87,13.84-3.68a2.77,2.77,0,0,1,1-.06.4.4,0,0,1,.23.1,19.36,19.36,0,0,1,2.38,2.79,1,1,0,0,0,1.1.34c.9-.23,1.77-.48,2.63-.77,5.05-1.74,9.95-3.55,15.31-5.08.82-.24,1.65-.45,2.51-.62a12.63,12.63,0,0,0,3.08-1.12h0l0,.06a.05.05,0,0,1,0,.07l-3.39,1.64c-3.07,1.47-6.13,3.24-9.09,4.79q-3.64,1.92-7.06,4.05a1.64,1.64,0,0,0-.59.61.31.31,0,0,0,.26.46l21.14,1.21c1.88.11,3.71.2,5.5.28q14.12.65,22.46.78a12.72,12.72,0,0,1,1.53.11c.13,0,.14.06,0,.11a19.81,19.81,0,0,1-2.45.94l-12.52,3.94c-1.76.56-3.49,1.15-5.22,1.78A147,147,0,0,0,463.1,338a5.16,5.16,0,0,0-1.9,1.6c-.17.23-.11.38.16.45a10.53,10.53,0,0,0,1.88.29q10.13.7,17.8,1.51a5.61,5.61,0,0,1,1.44.35.22.22,0,0,1,.14.22.2.2,0,0,1-.14.2,10.71,10.71,0,0,1-1.45.53c-3.77,1-7.49,2.34-11.19,3.36-4,1.1-7.86,2.18-12,3.19-3.22.79-6.38,1.59-9.46,2.4a3.35,3.35,0,0,0-.69.25q-15.11,7-30.48,14.1c-.58.26-1.17.5-1.76.71a12.83,12.83,0,0,0-2.9,1.25,1.89,1.89,0,0,0-.57,2.72,1.27,1.27,0,0,0,.93.51c4.72.59,10,1.4,15,2s10.31,1.27,15.45,1.93q10.43,1.34,22.66,3.59l13.36,2.44c3.24.58,6.86,1.38,10.86,2.37a5.1,5.1,0,0,1,1.3.5c.27.14.25.25,0,.32a232.68,232.68,0,0,0-25.09,7.19,163.63,163.63,0,0,0-15.85,6.83,109.55,109.55,0,0,0-21.17,14,31.6,31.6,0,0,0-4.14,3.79.06.06,0,0,0,.05.09q7.62,0,15.64.32c2.85.11,5.74.41,8.54.71a1.86,1.86,0,0,1,1.12.53.19.19,0,0,1,0,.3,8.09,8.09,0,0,1-1.62.78c-6.94,2.48-13.87,4.72-20.47,8.2q-2.44,1.29-4.86,2.7a66.48,66.48,0,0,0-11.52,8.57,57.6,57.6,0,0,0-7.59,8.89.22.22,0,0,0,.08.31,49.93,49.93,0,0,0,6.1,2.26c1.58.46,3.92,1.3,7,2.5a66.13,66.13,0,0,1,11.56,5.81c.35.22.32.28-.08.18a30.93,30.93,0,0,0-4.23-.5c-2.69-.28-5.22-.33-7.69.81-.14.06-.14.12,0,.16a93.84,93.84,0,0,1,9.93,3.27A167.81,167.81,0,0,1,443.35,470c.58.31,1.14.65,1.69,1,.1.07.09.11,0,.13q-10.35,1.51-16,2.66-9.51,1.92-18.13,4.14-5.13,1.32-10.55,3.1c-2.61.86-5.29,2-7.91,3a66.46,66.46,0,0,0-9.83,5.07,37.43,37.43,0,0,0-4.38,3.2.08.08,0,0,0,0,.11,31.73,31.73,0,0,0,3.75,2.66,7.86,7.86,0,0,1,1.69,1.34.22.22,0,0,1-.13.37,191.3,191.3,0,0,0-28.24,4.51,49.1,49.1,0,0,0-7,2.3,14.63,14.63,0,0,0-2.6,1.31c-.11.07-.1.12,0,.14q4,.82,6.7,1.49a13.3,13.3,0,0,1,4.65,2.14c.27.2.24.29-.09.3-2.25,0-4.55.08-6.81.31a124.09,124.09,0,0,0-24.73,4.57c-1.31.41-2.55.94-3.88,1.28a.65.65,0,0,0-.44.38q-1.43,3.38-2.64,6.66c-.32.87.44,1.72.95,2.34q4.13,4.9,7.17,9c.09.11.06.19-.09.22s-.41,0-.6,0c-2.72.57-5.5,1-8.22,1.7q-9.21,2.24-17.87,5.18a113.69,113.69,0,0,0-12.56,5.17c-2.48,1.2-4.72,2.63-7.17,4a2.53,2.53,0,0,0-.8.69c-.7.94-1.32,1.75-1.89,2.43q-4.05,4.93-7.89,9.46c-.92,1.08-1.78,2.25-2.72,3.33q-3.45,4-7.57,8.91c-1.86,2.23-3.48,4.06-4.85,5.47a1.92,1.92,0,0,1-1.42.57q-6.34,0-11.51.05a6.05,6.05,0,0,1-1-.06,5.83,5.83,0,0,0-2.65.53,112.86,112.86,0,0,0-14.31,5.91.37.37,0,0,0-.21.44,20.64,20.64,0,0,0,1.08,3.13q3.53,10,6.47,20.05c.05.17,0,.2-.13.08a44.59,44.59,0,0,0-7.64-5.18c-1.25-.67-2.93-1.47-5-2.41a76.65,76.65,0,0,0-17.83-5.39,14.2,14.2,0,0,0-3.92-.17q-4.37.45-8.81.82a48.81,48.81,0,0,1-5.47.18,37.4,37.4,0,0,1-9.44-1.57,77,77,0,0,1-10.39-3.85c-2.41-1.1-3.9-2.82-5.53-5.08q-4.35-6-7.27-10.78a11.36,11.36,0,0,1-.89-1.85,5.51,5.51,0,0,1-.29-1.84c0-3,0-6,0-9.05q.09-18.6.19-36.93a19.15,19.15,0,0,1,.84-5.62,1.71,1.71,0,0,1,1.57-1.21c1.32-.17,2.9-.1,4-.66a3.36,3.36,0,0,0,1.84-3.2,6.38,6.38,0,0,1,0-1.16,97.49,97.49,0,0,1,1.76-10.13,3,3,0,0,1,.61-1.25c.53-.65,1.06-1.27,1.59-1.89a23.53,23.53,0,0,0,3.5-5.37c.5-1.08,1-2.18,1.42-3.32a.44.44,0,0,0-.23-.57c-.33-.16-.7-.23-1-.41s-1-.53-1.67-.82l-5.21-2.4a20.57,20.57,0,0,1-2.1-1.11c-.9-.55-1.88-1-2.79-1.57q-4.72-3-8.45-5.47c-1-.7-2.1-1.46-3.17-2.31-1.43-1.13-2.88-2.54-4.29-3.86s-3.05-2.58-4.46-3.89c-1.07-1-2.16-1.95-3.26-2.88a3.58,3.58,0,0,1-1-1.17q-1.85-3.78-3.63-7.32a1.43,1.43,0,0,1-.16-.76c0-.77-.2-1.4-.09-2.18a8,8,0,0,0,0-1.62.17.17,0,0,1,.25-.16c.23.14.44.27.64.41a73.81,73.81,0,0,0,10.57,5.62c1.17.53,2.29,1,3.35,1.41,2.48,1,4.94,1.83,7.38,2.6a3.63,3.63,0,0,0,.45.1.78.78,0,0,1,.44.2.31.31,0,0,0,.24.08l.26,0a.4.4,0,0,1,.29.1.6.6,0,0,0,.57.17.41.41,0,0,1,.27,0,1,1,0,0,1,.24.17.35.35,0,0,0,.26.08c.43-.07.75.2,1.17.28a12.17,12.17,0,0,1,1.7.46,2.51,2.51,0,0,0,.81.08.45.45,0,0,1,.28.1.8.8,0,0,0,.66.17.63.63,0,0,1,.27,0,5.49,5.49,0,0,0,1.3.32,5.79,5.79,0,0,1,1.1.22c.72.22,1.47.2,2.2.37a13.41,13.41,0,0,0,1.4.3l4.33.54c.3,0,.52.19.85.11a1.33,1.33,0,0,1,.4,0,7.19,7.19,0,0,1,1,.1c.71.13,1.34,0,2,.13a19.9,19.9,0,0,0,2.44.09.2.2,0,0,0,.21-.17,3.44,3.44,0,0,1,.29-.89q3.87-7.49,7.54-13.81a3.54,3.54,0,0,1,1-1.07,1.13,1.13,0,0,0,.28-1.21q-1.67-6.48-3.39-13.53-.67-2.78-1.43-5.28-2.16-7.14-3.62-10.85-2.59-6.56-4.33-11.24a31.19,31.19,0,0,0-2.08-4.48.08.08,0,0,0-.15,0c-1.48,2.79-2.77,5.45-4.37,8.2-1.07,1.84-2.13,3.74-3.33,5.51-1.61,2.37-3.21,4.53-4.82,6.46a11.35,11.35,0,0,1-1.43,1.43c-.77.65-2.27-.41-2.76-1a2,2,0,0,1-.44-1.35c0-1.38,0-2.74,0-4.07q.17-5,.09-11.09a37.31,37.31,0,0,0-.26-4.18c0-.21-.09-.22-.21-.05a21.59,21.59,0,0,0-1.5,2.79,67.54,67.54,0,0,1-3.47,6.72,5.36,5.36,0,0,1-2.71,2.56c-1,.29-2.83.64-3.11-.7q-1.52-7.06-3.13-14c-.2-.85,0-1.89-.55-2.58a13.43,13.43,0,0,1-1.71-2.7q-2.73-6.48-5.39-12.34a19,19,0,0,1-1.62-4.2q-2.18-10.86-3.75-20.12a18.61,18.61,0,0,1-.25-2.62,4.43,4.43,0,0,1,.59-2,15,15,0,0,1,2.64-3.74,3.49,3.49,0,0,0,.65-.92.37.37,0,0,0,0-.29,7,7,0,0,0-.35-1.16q-1.87-5-3.7-9.52c-.78-1.91-.33-3.72.26-5.65,1.46-4.79,3.26-9.32,5.14-14.17.52-1.35,1.18-2.61,1.66-3.94.59-1.66,1.31-2.37,3.1-2.39,6.77-.08,12.22.07,18.38.25a5.14,5.14,0,0,0,2.77-.71,30.3,30.3,0,0,1,2.72-1.55q5.21-2.49,9.16-4.05a18.65,18.65,0,0,1,3.45-1c1.13-.22,2,.64,2.69,1.42a13,13,0,0,0,1.76,1.72.75.75,0,0,0,.67.16,99.56,99.56,0,0,1,10.77-1.81c.79-.09,1.52-.14,2.18-.15A.69.69,0,0,0,186,310a26.27,26.27,0,0,1,2.68-3.43q4.29-4.54,9.46-9.77a12.06,12.06,0,0,1,1-.86c1.12-.88,2-.46,3.26-.48q5.44-.09,11.31.11a3.42,3.42,0,0,0,1.24-.17.47.47,0,0,0,.23-.18c.84-1.26,1.93-2.28,2.73-3.59a39.82,39.82,0,0,1,3.24-4.55,1.16,1.16,0,0,1,.8-.43c2.89-.45,5.22-.87,7-1.27q8.92-2,17.84-3.94c2.75-.6,5.75-1.15,8.62-1.73.7-.15,1.38-.26,2.06-.34a5,5,0,0,0,1.93-.48,2.75,2.75,0,0,0,.87-.34l1.89-.82,1.65-.83,1.31-.55.63-.28a1.64,1.64,0,0,0,.74-.28,18.23,18.23,0,0,0,2.72-1.28c.22-.12.57-.09.85-.23,5-2.39,9.85-4.85,14.56-7.66a10.26,10.26,0,0,1,2.25-1c4.95-1.48,10-3.13,15-4.64Q314,257.35,326,253.39a22.17,22.17,0,0,1,4.39-1.15c1.94-.24,3.72-.55,5.35-.91,1.46-.33,2.95-.29,4.39-.57,1-.19,2.07-.11,3.11-.26.25,0,.27,0,.09.2-.84.71-1.67,1.44-2.49,2.17a27.14,27.14,0,0,0-2.23,2.28q-5.46,6.19-8.45,10-4.12,5.25-8.16,10a.22.22,0,0,0,0,.31.36.36,0,0,0,.33.06l2-.39q6.33-1.32,13.09-2.83a12.3,12.3,0,0,0,1.59-.46,12.14,12.14,0,0,1,1.63-.47,62.84,62.84,0,0,1,6.75-1.24c3.32-.4,6.68-.68,9.82-1.33,1.82-.38,3.66-.74,5.49-1.08s3.33-.65,4.9-1,3.2-.72,4.87-1a14.16,14.16,0,0,0,4.4-2c1-.59,2-1.17,3-1.72,6.16-3.35,11.67-6.59,17.75-10.1a34.24,34.24,0,0,1,7.79-3.49c2.25-.61,4.27-1.18,6.05-1.68q12.72-3.61,25.32-7.25c1.77-.51,3.51-1,5.2-1.54,2.29-.71,4.66-1.32,6.92-2q11.64-3.52,20.73-6.37,10.41-3.26,18.47-5.7a37.88,37.88,0,0,1,4.25-1c.29-.05.35,0,.19.29a9.29,9.29,0,0,1-1.57,1.71q-6.8,5.74-13.74,11.7c-2.06,1.77-4.09,3.48-6.09,5.11q-2.12,1.72-4.23,3.53c-4.17,3.54-8.34,6.77-12.52,10.14q-5.16,4.16-10.94,8.74-2.27,1.8-4.38,3.4-7.09,5.37-11.68,9.32a5.66,5.66,0,0,0-.49.49,2.48,2.48,0,0,0-.34.48,39.86,39.86,0,0,1-3.47,5.6Z" transform="translate(-113.33 -215.82)"/><g class="cls-6"><path class="cls-7" d="M457.07,247.63c0-.2-.12-.29-.36-.25a.46.46,0,0,1-.38-.11.15.15,0,0,1,0-.23.34.34,0,0,0,.09-.29.15.15,0,0,0-.2-.11.49.49,0,0,0-.33.59.18.18,0,0,1-.18.23.45.45,0,0,1-.31-.09.24.24,0,0,0-.31,0,.33.33,0,0,0-.1.36.24.24,0,0,1-.1.27,43.18,43.18,0,0,1-5.51,3c-.45.2-.77.5-1.19.72a.57.57,0,0,1-.33.07.69.69,0,0,0-.68.37.5.5,0,0,1-.29.24,6.11,6.11,0,0,0-1.33.66,1.94,1.94,0,0,1-.74.32,1.41,1.41,0,0,0-.84.57.56.56,0,0,1-.28.2,5.83,5.83,0,0,0-2.63,1.7.53.53,0,0,1-.25.15,2.94,2.94,0,0,0-1.41.76.64.64,0,0,1-.3.14,2.85,2.85,0,0,0-1.35.6.49.49,0,0,1-.26.1,1.07,1.07,0,0,0-.69.26,4.32,4.32,0,0,1-1.19.73,7.24,7.24,0,0,0-1.89,1.08,2.44,2.44,0,0,1-.68.39,2.55,2.55,0,0,0-.71.38,16.66,16.66,0,0,1-1.56,1.08,13.25,13.25,0,0,0-1.45,1,6.12,6.12,0,0,1-1.58.9c-.84.31-1.27,1-2.12,1.27-.66.21-1.16.95-1.77,1.33a10.53,10.53,0,0,0-2.68,2.26c-.8,1-1.66,2-2.58,3.25-.22.29-.5.46-.73.75a3.26,3.26,0,0,1-.51.54,17.53,17.53,0,0,0-2,2.16c-.63.79-1.31,1.59-2,2.4a8.42,8.42,0,0,1-1.09,1.07c-.43.34-.85.68-1.26,1s-1,.58-1.39,1a2.49,2.49,0,0,1-.93.56,5.42,5.42,0,0,0-1.24.65c-.24.16-.54.13-.73.24a31.28,31.28,0,0,1-2.76,1.51.86.86,0,0,1-.45.07.16.16,0,0,0-.13,0,3,3,0,0,1-1.49.82,2.55,2.55,0,0,0-1.16.61.85.85,0,0,1-.7.21.29.29,0,0,0-.23.1,2.37,2.37,0,0,1-1.52.81.4.4,0,0,0-.2.09,4.94,4.94,0,0,1-1.74.95,2.13,2.13,0,0,0-.94.59.56.56,0,0,1-.26.17.9.9,0,0,0-.24.12c-.13.1-.21.07-.26-.08a.08.08,0,0,0-.09-.07.51.51,0,0,0-.29.1,4.15,4.15,0,0,0-.55.56.29.29,0,0,1-.24.12H393a.6.6,0,0,0-.23.06,8.81,8.81,0,0,1-1.43.65,1.43,1.43,0,0,1-.42.09.73.73,0,0,0-.47.21.64.64,0,0,1-.25.15,16.52,16.52,0,0,0-3.4,1.39.59.59,0,0,1-.26.07,1.37,1.37,0,0,0-.8.31.55.55,0,0,1-.24.12,2,2,0,0,0-.63.29.51.51,0,0,1-.26.09,2.06,2.06,0,0,0-1.34.63.42.42,0,0,1-.25.12l-1,.11a.7.7,0,0,0-.37.14,3.69,3.69,0,0,1-1.69.71,1.61,1.61,0,0,0-1,.53.45.45,0,0,1-.3.16l-.59.08a.37.37,0,0,0-.22.12.38.38,0,0,0-.06.13.25.25,0,0,1-.21.21,2.48,2.48,0,0,0-.92.22l-1.81.95a3,3,0,0,0-1.1.91c-.31.44-.62.86-.92,1.25a.54.54,0,0,0-.12.36,7.17,7.17,0,0,1-.11,1.31c-.09.54.06,1,0,1.55a3.89,3.89,0,0,0,.07,1.12c.09.49.2,1,.32,1.51a.43.43,0,0,1,0,.25.47.47,0,0,0,0,.33,2.19,2.19,0,0,1,.06,1.19.4.4,0,0,0,0,.28c.23.48.08.84.15,1.33.14.89,0,1.83.18,2.72.05.39.1.79.15,1.21a4.16,4.16,0,0,1-.26,1.48,2.63,2.63,0,0,1-1.15,1.44,5.14,5.14,0,0,0-.79.57,3.26,3.26,0,0,1-.66.43,12.89,12.89,0,0,0-2.08,1.25,1.14,1.14,0,0,1-.47.19.31.31,0,0,0-.19.11,2.88,2.88,0,0,1-1.49,1,1.61,1.61,0,0,0-.73.43.38.38,0,0,1-.24.13,2.24,2.24,0,0,0-.7.25,7.8,7.8,0,0,1-1.36.57,1.62,1.62,0,0,0-.53.3,1.29,1.29,0,0,1-.57.29,10.89,10.89,0,0,1-1.14.21,15.7,15.7,0,0,0-3,.83c-1,.34-1.9.24-2.84.67-.34.15-.67.11-1,.28-.78.38-1.64.16-2.44.48-.29.12-.57.23-.86.33a7.71,7.71,0,0,1-.86.27l-3.48.86a.26.26,0,0,1-.27-.08l-1-1a.56.56,0,0,1-.16-.28,6.41,6.41,0,0,0-1-2.13.18.18,0,0,0-.18-.09.72.72,0,0,1-.51-.2.82.82,0,0,1-.28-.55,13.64,13.64,0,0,1-.11-2.05c0-1.12,0-2.2.13-3.29q.72-6.93,1.36-14.77a.54.54,0,0,1,.37-.46q12.87-4.17,26.43-8.17,10.27-3,16.95-5.11a48.25,48.25,0,0,0,10.36-4.61c4.1-2.43,7.56-6.15,10.82-10q2-2.37,4.27-5a30.51,30.51,0,0,1,8.35-7,3,3,0,0,0,.65-.47.44.44,0,0,1,.19-.12,4.16,4.16,0,0,0,.7-.35l.66-.41c2.13-1.13,4.26-2.26,6.38-3.41l.15,0a.32.32,0,0,0,.23-.09,6.24,6.24,0,0,1,1.19-.58,9.47,9.47,0,0,1,1.13-.6q6.58-3.11,13.15-6c1.6-.7,3.19-1.52,4.8-2.21l7.4-3.14c.77-.32,1.34-.85,2.15-1.11a.76.76,0,0,0,.47-.46.22.22,0,0,0-.19-.3,1.44,1.44,0,0,0-.84.23.92.92,0,0,1-.69.08M284.8,283l.05.12a.26.26,0,0,1,0,.27l-.83,1.09a.23.23,0,0,0,0,.26.79.79,0,0,1,0,.67,1.64,1.64,0,0,0,0,1.37.48.48,0,0,1-.14.64c-.08.05-.07.11,0,.15a.3.3,0,0,0,.16.05c.24,0,.32-.19.59-.16a5.34,5.34,0,0,1,1.36.37.45.45,0,0,0,.23,0,8.48,8.48,0,0,1,1.82-.1,2.71,2.71,0,0,0,1.54-.33,2.12,2.12,0,0,1,1.42-.33.72.72,0,0,0,.38-.05,3.07,3.07,0,0,1,1.28-.24.63.63,0,0,0,.33-.09,2.27,2.27,0,0,1,.86-.3.64.64,0,0,0,.3-.11.69.69,0,0,0,.22-.23.2.2,0,0,1,.32-.06.48.48,0,0,0,.59,0,.36.36,0,0,1,.28-.06l.22.05a.33.33,0,0,0,.26,0,1.14,1.14,0,0,1,.81-.06.39.39,0,0,0,.28,0,3.34,3.34,0,0,1,1-.27c.44,0,.73-.34,1.18-.41.68-.1,1.35-.2,2-.28a3.73,3.73,0,0,0,.89-.22,5.88,5.88,0,0,1,2.28-.52,4.18,4.18,0,0,0,1.81-.45,2.68,2.68,0,0,1,1.16-.15.46.46,0,0,0,.21-.05l.17-.09a.59.59,0,0,1,.29-.07,3.94,3.94,0,0,0,2-.26,2.09,2.09,0,0,1,.89-.26c.41,0,.8,0,1.16,0a.53.53,0,0,0,.51-.46,4.54,4.54,0,0,0,0-1.33c-.1-.6.07-1.16,0-1.77a2.45,2.45,0,0,1,0-.94c.13-.55.25-1.11.36-1.69a.88.88,0,0,0-.3-1,.12.12,0,0,1,0-.21.57.57,0,0,1,.66-.19.3.3,0,0,0,.26,0,2.55,2.55,0,0,0,1-1.2c.09-.24,0-.31-.21-.19l-.84.41c-.11.06-.16,0-.16-.1a.57.57,0,0,1,0-.18.63.63,0,0,0,0-.27.14.14,0,0,0-.08-.12c-.13-.06-.14-.14,0-.22l.43-.28a1.63,1.63,0,0,0,.39-.35,10.09,10.09,0,0,1,1.28-1.33,1.67,1.67,0,0,0,.38-.47,2.6,2.6,0,0,1,1.11-1,2.36,2.36,0,0,0,.55-.38,4.9,4.9,0,0,0,1.35-1.62c.21-.42.6-.64.77-1.11a2,2,0,0,1,.53-.75c.27-.25.23-.35-.14-.29a1.49,1.49,0,0,0-.58.24c-1.95,1.19-3.86,2.26-5.72,3.18L306.12,273a8,8,0,0,1-.81.51l-.45.2L298.11,277c-1.18.57-2.54,1.19-4.09,1.85-2.21.94-4.29,1.9-6.65,2.8a26.72,26.72,0,0,0-2.5,1.11" transform="translate(-113.33 -215.82)"/><path class="cls-8" d="M401.78,468.19l-1.84.19M175.63,330.43a7.62,7.62,0,0,0-2.24,1,.61.61,0,0,1-.18.07.55.55,0,0,0-.18.06,39.93,39.93,0,0,0-6.91,4.49m-31.52-4.39a2.58,2.58,0,0,0,0,1.53m.11,2.83a4.88,4.88,0,0,0,.2,2.47M291.2,304.17l.05-.2" transform="translate(-113.33 -215.82)"/><line class="cls-9" x1="133.48" y1="128.38" x2="135.89" y2="127.33"/><path class="cls-7" d="M220.57,386.9c-1.44-.6-3.42-1.52-6-2.78a38.63,38.63,0,0,0-8.07-2.81M165.7,391.77a1.3,1.3,0,0,0-.58-.19,2.11,2.11,0,0,1-.58-.12c-3.14-1.19-6.36-2.37-9.63-3.54m84.82.39a17.74,17.74,0,0,0-4.83-2c-1.45-.35-2.68-.69-3.68-1M255,396.36c-1.11,0-2.2.08-3.28.14a2.87,2.87,0,0,0-1.13.3,4.38,4.38,0,0,1-1.17.4c-1.15.23-2.31.42-3.46.58a1.46,1.46,0,0,1-1.06-.33" transform="translate(-113.33 -215.82)"/><path class="cls-10" d="M216.38,466.88a36.39,36.39,0,0,0,.86-4.54c.4-3.24-.23-6.74-3.86-7.69a7.65,7.65,0,0,0-3.77,0M215.07,470c.16,0,.15.21,0,.56" transform="translate(-113.33 -215.82)"/><path class="cls-11" d="M215.05,470.54a.55.55,0,0,0-.42,0,95.93,95.93,0,0,1-14.54,5.26,49.29,49.29,0,0,1-18.17,1.65.11.11,0,0,1,0-.21,30.23,30.23,0,0,0,2.9-1,52.79,52.79,0,0,0,16.5-10.41c.51-.5,1-1,1.6-1.42a1.28,1.28,0,0,0,.28-.3c.18-.29.17-.43,0-.45" transform="translate(-113.33 -215.82)"/><line class="cls-10" x1="99.47" y1="259.85" x2="101.32" y2="255.57"/><path class="cls-8" d="M214.66,471.39a1.57,1.57,0,0,0,.39-.85" transform="translate(-113.33 -215.82)"/><path class="cls-11" d="M214.66,471.39q-5.28,2.76-10.44,5c-1.8.8-4.11,1.7-6.93,2.72A65,65,0,0,1,177.58,483" transform="translate(-113.33 -215.82)"/><path class="cls-8" d="M185.24,491.37a74.87,74.87,0,0,1-8.22-1.92q-4.44-1.26-8.62-2.54c-.33-.1-.36,0-.09.17l3.4,2.72" transform="translate(-113.33 -215.82)"/><path class="cls-11" d="M171.71,489.8a40.82,40.82,0,0,1-6.73-2.55,52,52,0,0,0-6-2.65" transform="translate(-113.33 -215.82)"/><path class="cls-10" d="M171.71,489.8a48.26,48.26,0,0,0,8.86,4.29m26.09-8.64a51,51,0,0,0,4.26-6.61" transform="translate(-113.33 -215.82)"/><path class="cls-7" d="M266.9,476.32a.33.33,0,0,0,0-.3.63.63,0,0,0-.65-.06c-.68.3-1.37.58-2.08.86-1.85.71-4,1.61-6.56,2.69a.49.49,0,0,0-.27.47m-21.12,49.56a56.3,56.3,0,0,0-7,.41c-.31,0-.88.09-1.73.16a14.76,14.76,0,0,0-1.72.23m-15.56,23.5a2.67,2.67,0,0,0-1.16,0l-1.1.24c-1.53.15-3.28.25-5.22.32a11.9,11.9,0,0,0-2.38.21,26.19,26.19,0,0,0-4,1.25m27.59-18.79a3,3,0,0,0-1.67.37q-2.43,1.18-4.71,2.33c-1.12.57-2.32.82-3.42,1.46a3.66,3.66,0,0,1-.94.36l-1,.21" transform="translate(-113.33 -215.82)"/></g><path class="cls-12" d="M457.07,247.63c0-.2-.12-.29-.36-.25a.46.46,0,0,1-.38-.11.15.15,0,0,1,0-.23.34.34,0,0,0,.09-.29.15.15,0,0,0-.2-.11.49.49,0,0,0-.33.59.18.18,0,0,1-.18.23.45.45,0,0,1-.31-.09.24.24,0,0,0-.31,0,.33.33,0,0,0-.1.36.24.24,0,0,1-.1.27,43.18,43.18,0,0,1-5.51,3c-.45.2-.77.5-1.19.72a.57.57,0,0,1-.33.07.69.69,0,0,0-.68.37.5.5,0,0,1-.29.24,6.11,6.11,0,0,0-1.33.66,1.94,1.94,0,0,1-.74.32,1.41,1.41,0,0,0-.84.57.56.56,0,0,1-.28.2,5.83,5.83,0,0,0-2.63,1.7.53.53,0,0,1-.25.15,2.94,2.94,0,0,0-1.41.76.64.64,0,0,1-.3.14,2.85,2.85,0,0,0-1.35.6.49.49,0,0,1-.26.1,1.07,1.07,0,0,0-.69.26,4.32,4.32,0,0,1-1.19.73,7.24,7.24,0,0,0-1.89,1.08,2.44,2.44,0,0,1-.68.39,2.55,2.55,0,0,0-.71.38,16.66,16.66,0,0,1-1.56,1.08,13.25,13.25,0,0,0-1.45,1,6.12,6.12,0,0,1-1.58.9c-.84.31-1.27,1-2.12,1.27-.66.21-1.16.95-1.77,1.33a10.53,10.53,0,0,0-2.68,2.26c-.8,1-1.66,2-2.58,3.25-.22.29-.5.46-.73.75a3.26,3.26,0,0,1-.51.54,17.53,17.53,0,0,0-2,2.16c-.63.79-1.31,1.59-2,2.4a8.42,8.42,0,0,1-1.09,1.07c-.43.34-.85.68-1.26,1s-1,.58-1.39,1a2.49,2.49,0,0,1-.93.56,5.42,5.42,0,0,0-1.24.65c-.24.16-.54.13-.73.24a31.28,31.28,0,0,1-2.76,1.51.86.86,0,0,1-.45.07.16.16,0,0,0-.13,0,3,3,0,0,1-1.49.82,2.55,2.55,0,0,0-1.16.61.85.85,0,0,1-.7.21.29.29,0,0,0-.23.1,2.37,2.37,0,0,1-1.52.81.4.4,0,0,0-.2.09,4.94,4.94,0,0,1-1.74.95,2.13,2.13,0,0,0-.94.59.56.56,0,0,1-.26.17.9.9,0,0,0-.24.12c-.13.1-.21.07-.26-.08a.08.08,0,0,0-.09-.07.51.51,0,0,0-.29.1,4.15,4.15,0,0,0-.55.56.29.29,0,0,1-.24.12H393a.6.6,0,0,0-.23.06,8.81,8.81,0,0,1-1.43.65,1.43,1.43,0,0,1-.42.09.73.73,0,0,0-.47.21.64.64,0,0,1-.25.15,16.52,16.52,0,0,0-3.4,1.39.59.59,0,0,1-.26.07,1.37,1.37,0,0,0-.8.31.55.55,0,0,1-.24.12,2,2,0,0,0-.63.29.51.51,0,0,1-.26.09,2.06,2.06,0,0,0-1.34.63.42.42,0,0,1-.25.12l-1,.11a.7.7,0,0,0-.37.14,3.69,3.69,0,0,1-1.69.71,1.61,1.61,0,0,0-1,.53.45.45,0,0,1-.3.16l-.59.08a.37.37,0,0,0-.22.12.38.38,0,0,0-.06.13.25.25,0,0,1-.21.21,2.48,2.48,0,0,0-.92.22l-1.81.95a3,3,0,0,0-1.1.91c-.31.44-.62.86-.92,1.25a.54.54,0,0,0-.12.36,7.17,7.17,0,0,1-.11,1.31c-.09.54.06,1,0,1.55a3.89,3.89,0,0,0,.07,1.12c.09.49.2,1,.32,1.51a.43.43,0,0,1,0,.25.47.47,0,0,0,0,.33,2.19,2.19,0,0,1,.06,1.19.4.4,0,0,0,0,.28c.23.48.08.84.15,1.33.14.89,0,1.83.18,2.72.05.39.1.79.15,1.21a4.16,4.16,0,0,1-.26,1.48,2.63,2.63,0,0,1-1.15,1.44,5.14,5.14,0,0,0-.79.57,3.26,3.26,0,0,1-.66.43,12.89,12.89,0,0,0-2.08,1.25,1.14,1.14,0,0,1-.47.19.31.31,0,0,0-.19.11,2.88,2.88,0,0,1-1.49,1,1.61,1.61,0,0,0-.73.43.38.38,0,0,1-.24.13,2.24,2.24,0,0,0-.7.25,7.8,7.8,0,0,1-1.36.57,1.62,1.62,0,0,0-.53.3,1.29,1.29,0,0,1-.57.29,10.89,10.89,0,0,1-1.14.21,15.7,15.7,0,0,0-3,.83c-1,.34-1.9.24-2.84.67-.34.15-.67.11-1,.28-.78.38-1.64.16-2.44.48-.29.12-.57.23-.86.33a7.71,7.71,0,0,1-.86.27l-3.48.86a.26.26,0,0,1-.27-.08l-1-1a.56.56,0,0,1-.16-.28,6.41,6.41,0,0,0-1-2.13.18.18,0,0,0-.18-.09.72.72,0,0,1-.51-.2.82.82,0,0,1-.28-.55,13.64,13.64,0,0,1-.11-2.05c0-1.12,0-2.2.13-3.29q.72-6.93,1.36-14.77a.54.54,0,0,1,.37-.46q12.87-4.17,26.43-8.17,10.27-3,16.95-5.11a48.25,48.25,0,0,0,10.36-4.61c4.1-2.43,7.56-6.15,10.82-10q2-2.37,4.27-5a30.51,30.51,0,0,1,8.35-7,3,3,0,0,0,.65-.47.44.44,0,0,1,.19-.12,4.16,4.16,0,0,0,.7-.35l.66-.41c2.13-1.13,4.26-2.26,6.38-3.41l.15,0a.32.32,0,0,0,.23-.09,6.24,6.24,0,0,1,1.19-.58,9.47,9.47,0,0,1,1.13-.6q6.58-3.11,13.15-6c1.6-.7,3.19-1.52,4.8-2.21l7.4-3.14c.77-.32,1.34-.85,2.15-1.11a.76.76,0,0,0,.47-.46.22.22,0,0,0-.19-.3,1.44,1.44,0,0,0-.84.23.92.92,0,0,1-.69.08c.94-.29,1.88-.55,2.84-.79a13,13,0,0,1,2.14-.24.1.1,0,0,1,.1.16,17.58,17.58,0,0,1-1.42,1.75c-1.51,1.57-2.94,3-4.28,4.31a2.3,2.3,0,0,0-.62,1.06.48.48,0,0,1-.15.22l-1.36,1Z" transform="translate(-113.33 -215.82)"/><path class="cls-2" d="M457.07,247.63a39.35,39.35,0,0,1-3.59,2.3q-10.86,5.83-20.81,12.05c-2.37,1.48-4.68,3-6.91,4.53a18.21,18.21,0,0,0-3.59,3.25q-3.87,4.67-7.62,8.64a19.48,19.48,0,0,1-5.21,3.87c-1.42.74-2.76,1.56-4.18,2.23q-4.43,2.08-8.86,4.37a51.47,51.47,0,0,1-5.79,2.53,142.59,142.59,0,0,0-16.3,7.1.19.19,0,0,0-.1.19c.62,4.91,1.26,9.38,1.77,14.66a1.1,1.1,0,0,1-.51,1c-2.38,1.45-4.8,2.93-7.24,4.46a14.8,14.8,0,0,1-4.52,2q-8.14,1.88-16.59,3.78c-.63.15-1.29.12-1.92.31a.21.21,0,0,1-.27-.09,4.85,4.85,0,0,1-.32-.69q-1.26-2.44-2.46-5c-1.88-3.92-4-7.74-6.06-11.6-2.65-5.07-5.42-10.06-8.12-15.1-1.8-3.38-3.76-6.62-5.36-10.11a.18.18,0,0,1,.1-.27,5.06,5.06,0,0,1,1-.28q5.85-1.07,11.5-2.24,21.17-4.4,39.29-7.74c.43-.08,1.15-.27,2.17-.56a15.65,15.65,0,0,0,2.09-.79,277.25,277.25,0,0,0,27-14.83,13.42,13.42,0,0,1,3-1.43c1.11-.34,2.21-.66,3.33-.94,8-2.07,15.88-4.4,23.93-6.59q2.65-.72,5.32-1.48,9.25-2.62,18.58-5.06a.92.92,0,0,0,.69-.08,1.44,1.44,0,0,1,.84-.23.22.22,0,0,1,.19.3.76.76,0,0,1-.47.46c-.81.26-1.38.79-2.15,1.11l-7.4,3.14c-1.61.69-3.2,1.51-4.8,2.21q-6.57,2.88-13.15,6a9.47,9.47,0,0,0-1.13.6,6.24,6.24,0,0,0-1.19.58.32.32,0,0,1-.23.09l-.15,0c-2.12,1.15-4.25,2.28-6.38,3.41l-.66.41a4.16,4.16,0,0,1-.7.35.44.44,0,0,0-.19.12,3,3,0,0,1-.65.47,30.51,30.51,0,0,0-8.35,7q-2.25,2.59-4.27,5c-3.26,3.83-6.72,7.55-10.82,10a48.25,48.25,0,0,1-10.36,4.61q-6.67,2.08-16.95,5.11-13.56,4-26.43,8.17a.54.54,0,0,0-.37.46q-.64,7.83-1.36,14.77c-.11,1.09-.11,2.17-.13,3.29a13.64,13.64,0,0,0,.11,2.05.82.82,0,0,0,.28.55.72.72,0,0,0,.51.2.18.18,0,0,1,.18.09,6.41,6.41,0,0,1,1,2.13.56.56,0,0,0,.16.28l1,1a.26.26,0,0,0,.27.08l3.48-.86a7.71,7.71,0,0,0,.86-.27c.29-.1.57-.21.86-.33.8-.32,1.66-.1,2.44-.48.35-.17.68-.13,1-.28.94-.43,1.87-.33,2.84-.67a15.7,15.7,0,0,1,3-.83,10.89,10.89,0,0,0,1.14-.21,1.29,1.29,0,0,0,.57-.29,1.62,1.62,0,0,1,.53-.3,7.8,7.8,0,0,0,1.36-.57,2.24,2.24,0,0,1,.7-.25.38.38,0,0,0,.24-.13,1.61,1.61,0,0,1,.73-.43,2.88,2.88,0,0,0,1.49-1,.31.31,0,0,1,.19-.11,1.14,1.14,0,0,0,.47-.19,12.89,12.89,0,0,1,2.08-1.25,3.26,3.26,0,0,0,.66-.43,5.14,5.14,0,0,1,.79-.57,2.63,2.63,0,0,0,1.15-1.44,4.16,4.16,0,0,0,.26-1.48c-.05-.42-.1-.82-.15-1.21-.14-.89,0-1.83-.18-2.72-.07-.49.08-.85-.15-1.33a.4.4,0,0,1,0-.28,2.19,2.19,0,0,0-.06-1.19.47.47,0,0,1,0-.33.43.43,0,0,0,0-.25c-.12-.51-.23-1-.32-1.51a3.89,3.89,0,0,1-.07-1.12c0-.52-.11-1,0-1.55a7.17,7.17,0,0,0,.11-1.31.54.54,0,0,1,.12-.36c.3-.39.61-.81.92-1.25a3,3,0,0,1,1.1-.91l1.81-.95a2.48,2.48,0,0,1,.92-.22.25.25,0,0,0,.21-.21.38.38,0,0,1,.06-.13.37.37,0,0,1,.22-.12l.59-.08a.45.45,0,0,0,.3-.16,1.61,1.61,0,0,1,1-.53,3.69,3.69,0,0,0,1.69-.71.7.7,0,0,1,.37-.14l1-.11a.42.42,0,0,0,.25-.12,2.06,2.06,0,0,1,1.34-.63.51.51,0,0,0,.26-.09,2,2,0,0,1,.63-.29.55.55,0,0,0,.24-.12,1.37,1.37,0,0,1,.8-.31.59.59,0,0,0,.26-.07,16.52,16.52,0,0,1,3.4-1.39.64.64,0,0,0,.25-.15.73.73,0,0,1,.47-.21,1.43,1.43,0,0,0,.42-.09,8.81,8.81,0,0,0,1.43-.65.6.6,0,0,1,.23-.06h.4a.29.29,0,0,0,.24-.12,4.15,4.15,0,0,1,.55-.56.51.51,0,0,1,.29-.1.08.08,0,0,1,.09.07c0,.15.13.18.26.08a.9.9,0,0,1,.24-.12.56.56,0,0,0,.26-.17,2.13,2.13,0,0,1,.94-.59,4.94,4.94,0,0,0,1.74-.95.4.4,0,0,1,.2-.09,2.37,2.37,0,0,0,1.52-.81.29.29,0,0,1,.23-.1.85.85,0,0,0,.7-.21,2.55,2.55,0,0,1,1.16-.61,3,3,0,0,0,1.49-.82.16.16,0,0,1,.13,0,.86.86,0,0,0,.45-.07,31.28,31.28,0,0,0,2.76-1.51c.19-.11.49-.08.73-.24a5.42,5.42,0,0,1,1.24-.65,2.49,2.49,0,0,0,.93-.56c.43-.38.94-.59,1.39-1s.83-.7,1.26-1a8.42,8.42,0,0,0,1.09-1.07c.72-.81,1.4-1.61,2-2.4a17.53,17.53,0,0,1,2-2.16,3.26,3.26,0,0,0,.51-.54c.23-.29.51-.46.73-.75.92-1.21,1.78-2.29,2.58-3.25a10.53,10.53,0,0,1,2.68-2.26c.61-.38,1.11-1.12,1.77-1.33.85-.27,1.28-1,2.12-1.27a6.12,6.12,0,0,0,1.58-.9,13.25,13.25,0,0,1,1.45-1,16.66,16.66,0,0,0,1.56-1.08,2.55,2.55,0,0,1,.71-.38,2.44,2.44,0,0,0,.68-.39,7.24,7.24,0,0,1,1.89-1.08,4.32,4.32,0,0,0,1.19-.73,1.07,1.07,0,0,1,.69-.26.49.49,0,0,0,.26-.1,2.85,2.85,0,0,1,1.35-.6.64.64,0,0,0,.3-.14,2.94,2.94,0,0,1,1.41-.76.53.53,0,0,0,.25-.15,5.83,5.83,0,0,1,2.63-1.7.56.56,0,0,0,.28-.2,1.41,1.41,0,0,1,.84-.57,1.94,1.94,0,0,0,.74-.32,6.11,6.11,0,0,1,1.33-.66.5.5,0,0,0,.29-.24.69.69,0,0,1,.68-.37.57.57,0,0,0,.33-.07c.42-.22.74-.52,1.19-.72a43.18,43.18,0,0,0,5.51-3,.24.24,0,0,0,.1-.27.33.33,0,0,1,.1-.36.24.24,0,0,1,.31,0,.45.45,0,0,0,.31.09.18.18,0,0,0,.18-.23.49.49,0,0,1,.33-.59.15.15,0,0,1,.2.11.34.34,0,0,1-.09.29.15.15,0,0,0,0,.23.46.46,0,0,0,.38.11c.24,0,.37.05.36.25Z" transform="translate(-113.33 -215.82)"/><path class="cls-2" d="M284.8,283l.05.12a.26.26,0,0,1,0,.27l-.83,1.09a.23.23,0,0,0,0,.26.79.79,0,0,1,0,.67,1.64,1.64,0,0,0,0,1.37.48.48,0,0,1-.14.64c-.08.05-.07.11,0,.15a.3.3,0,0,0,.16.05c.24,0,.32-.19.59-.16a5.34,5.34,0,0,1,1.36.37.45.45,0,0,0,.23,0,8.48,8.48,0,0,1,1.82-.1,2.71,2.71,0,0,0,1.54-.33,2.12,2.12,0,0,1,1.42-.33.72.72,0,0,0,.38-.05,3.07,3.07,0,0,1,1.28-.24.63.63,0,0,0,.33-.09,2.27,2.27,0,0,1,.86-.3.64.64,0,0,0,.3-.11.69.69,0,0,0,.22-.23.2.2,0,0,1,.32-.06.48.48,0,0,0,.59,0,.36.36,0,0,1,.28-.06l.22.05a.33.33,0,0,0,.26,0,1.14,1.14,0,0,1,.81-.06.39.39,0,0,0,.28,0,3.34,3.34,0,0,1,1-.27c.44,0,.73-.34,1.18-.41.68-.1,1.35-.2,2-.28a3.73,3.73,0,0,0,.89-.22,5.88,5.88,0,0,1,2.28-.52,4.18,4.18,0,0,0,1.81-.45,2.68,2.68,0,0,1,1.16-.15.46.46,0,0,0,.21-.05l.17-.09a.59.59,0,0,1,.29-.07,3.94,3.94,0,0,0,2-.26,2.09,2.09,0,0,1,.89-.26c.41,0,.8,0,1.16,0a.53.53,0,0,0,.51-.46,4.54,4.54,0,0,0,0-1.33c-.1-.6.07-1.16,0-1.77a2.45,2.45,0,0,1,0-.94c.13-.55.25-1.11.36-1.69a.88.88,0,0,0-.3-1,.12.12,0,0,1,0-.21.57.57,0,0,1,.66-.19.3.3,0,0,0,.26,0,2.55,2.55,0,0,0,1-1.2c.09-.24,0-.31-.21-.19l-.84.41c-.11.06-.16,0-.16-.1a.57.57,0,0,1,0-.18.63.63,0,0,0,0-.27.14.14,0,0,0-.08-.12c-.13-.06-.14-.14,0-.22l.43-.28a1.63,1.63,0,0,0,.39-.35,10.09,10.09,0,0,1,1.28-1.33,1.67,1.67,0,0,0,.38-.47,2.6,2.6,0,0,1,1.11-1,2.36,2.36,0,0,0,.55-.38,4.9,4.9,0,0,0,1.35-1.62c.21-.42.6-.64.77-1.11a2,2,0,0,1,.53-.75c.27-.25.23-.35-.14-.29a1.49,1.49,0,0,0-.58.24c-1.95,1.19-3.86,2.26-5.72,3.18L306.12,273a8,8,0,0,1-.81.51l-.45.2L298.11,277c-1.18.57-2.54,1.19-4.09,1.85-2.21.94-4.29,1.9-6.65,2.8a26.72,26.72,0,0,0-2.5,1.11,3.73,3.73,0,0,0-1.35.3q-7.95,3.07-12.64,5.14-2.85,1.25-9.28,4.36a5.73,5.73,0,0,1-1.44.35l-7.32.69c-1.23.12-2.44.35-3.68.5q-4,.47-7.92,1a19.9,19.9,0,0,1-2.44.2.36.36,0,0,1-.35-.29,14.25,14.25,0,0,1-.09-3.91c.09-.72,1.29-.88,1.84-1q8.94-2.07,11.51-2.52,4.54-.78,8.4-1.69a19.39,19.39,0,0,0,3-1c2.16-.93,4.22-2,6.32-2.86q5.49-2.34,11-4.79c2.19-1,4.89-2.33,7.3-3.41,1.57-.69,3.27-1.82,4.95-2.53a22.52,22.52,0,0,1,2.58-1.11q6.23-1.8,12.61-3.67,5.82-1.69,16.86-5.29a6,6,0,0,0,.69-.3c.21-.12.24-.08.09.11q-3.13,3.86-6.07,7.35a74.85,74.85,0,0,0-5,6.64,6.53,6.53,0,0,0-1.1,3.52c0,.66,0,1.34,0,2a2.52,2.52,0,0,0,.79,2,.27.27,0,0,1-.11.44c-.76.23-1.47.43-2.14.58q-10.44,2.34-19.39,4.22c-3.87.81-7.16,1.45-9.89,1.91-1.18.2-2.3.34-3.37.43-.11,0-.15,0-.14-.14a3.2,3.2,0,0,1,.82-1.8q1.91-2.28,3.44-3.94A14.89,14.89,0,0,1,284.8,283Z" transform="translate(-113.33 -215.82)"/><path class="cls-12" d="M284.8,283l.07-.23a26.72,26.72,0,0,1,2.5-1.11c2.36-.9,4.44-1.86,6.65-2.8,1.55-.66,2.91-1.28,4.09-1.85l6.75-3.27.45-.2a8,8,0,0,0,.81-.51l7.61-3.79c1.86-.92,3.77-2,5.72-3.18a1.49,1.49,0,0,1,.58-.24c.37-.06.41,0,.14.29a2,2,0,0,0-.53.75c-.17.47-.56.69-.77,1.11a4.9,4.9,0,0,1-1.35,1.62,2.36,2.36,0,0,1-.55.38,2.6,2.6,0,0,0-1.11,1,1.67,1.67,0,0,1-.38.47,10.09,10.09,0,0,0-1.28,1.33,1.63,1.63,0,0,1-.39.35l-.43.28c-.13.08-.12.16,0,.22a.14.14,0,0,1,.08.12.63.63,0,0,1,0,.27.57.57,0,0,0,0,.18c0,.13.05.16.16.1l.84-.41c.23-.12.3-.05.21.19a2.55,2.55,0,0,1-1,1.2.3.3,0,0,1-.26,0,.57.57,0,0,0-.66.19.12.12,0,0,0,0,.21.88.88,0,0,1,.3,1c-.11.58-.23,1.14-.36,1.69a2.45,2.45,0,0,0,0,.94c.09.61-.08,1.17,0,1.77a4.54,4.54,0,0,1,0,1.33.53.53,0,0,1-.51.46c-.36,0-.75,0-1.16,0a2.09,2.09,0,0,0-.89.26,3.94,3.94,0,0,1-2,.26.59.59,0,0,0-.29.07l-.17.09a.46.46,0,0,1-.21.05,2.68,2.68,0,0,0-1.16.15,4.18,4.18,0,0,1-1.81.45,5.88,5.88,0,0,0-2.28.52,3.73,3.73,0,0,1-.89.22c-.66.08-1.33.18-2,.28-.45.07-.74.36-1.18.41a3.34,3.34,0,0,0-1,.27.39.39,0,0,1-.28,0,1.14,1.14,0,0,0-.81.06.33.33,0,0,1-.26,0l-.22-.05a.36.36,0,0,0-.28.06.48.48,0,0,1-.59,0,.2.2,0,0,0-.32.06.69.69,0,0,1-.22.23.64.64,0,0,1-.3.11,2.27,2.27,0,0,0-.86.3.63.63,0,0,1-.33.09,3.07,3.07,0,0,0-1.28.24.72.72,0,0,1-.38.05,2.12,2.12,0,0,0-1.42.33,2.71,2.71,0,0,1-1.54.33,8.48,8.48,0,0,0-1.82.1.45.45,0,0,1-.23,0,5.34,5.34,0,0,0-1.36-.37c-.27,0-.35.15-.59.16a.3.3,0,0,1-.16-.05c-.07,0-.08-.1,0-.15a.48.48,0,0,0,.14-.64,1.64,1.64,0,0,1,0-1.37.79.79,0,0,0,0-.67.23.23,0,0,1,0-.26l.83-1.09a.26.26,0,0,0,0-.27l-.05-.12Z" transform="translate(-113.33 -215.82)"/><path class="cls-13" d="M266.51,275.79a1.64,1.64,0,0,1-.74.28,1.29,1.29,0,0,1,.74-.28Z" transform="translate(-113.33 -215.82)"/><path class="cls-13" d="M265.14,276.35l-1.31.55a2.65,2.65,0,0,1,1.31-.55Z" transform="translate(-113.33 -215.82)"/><polygon class="cls-13" points="148.84 61.9 146.95 62.73 148.84 61.9 148.84 61.9"/><path class="cls-13" d="M259.42,278.89a5,5,0,0,1-1.93.48l1.93-.48Z" transform="translate(-113.33 -215.82)"/><path class="cls-13" d="M423.05,283.37a2,2,0,0,1-.52.69,1,1,0,0,1,.52-.69Z" transform="translate(-113.33 -215.82)"/><path class="cls-13" d="M422.53,284.06a2.35,2.35,0,0,1-.67.71c.18-.45.41-.69.67-.71Z" transform="translate(-113.33 -215.82)"/><path class="cls-13" d="M401.78,468.19l-1.84.19q-9.45.71-12.72,1-13.59,1.35-27.16,2.94c-1,.11-2,.26-3,.45s-2,.35-3,.5a3.73,3.73,0,0,1-1,0,2.3,2.3,0,0,0-.92.14,3.63,3.63,0,0,1-1.47.17c-.14,0-.14,0,0-.1.45-.22.94-.17,1.42-.35q9.76-3.72,18.38-6.48c2.24-.72,4.94-1.45,8.08-2.21a11.77,11.77,0,0,0,1.9-.31c.16-.07.16-.11,0-.11-1.68-.05-3.29-.06-4.85,0a13.57,13.57,0,0,1-1.69-.07q-6.18-.66-12-1.09c-1.18-.09-2.32,0-3.49,0-.48,0-.59.34-1,.44q-6.42,1.71-12.6,4a47.06,47.06,0,0,0-8.65,4.19,74,74,0,0,0-7.22,5q-2.85,2.36-5.86,5a6,6,0,0,1-3,1.39l-1.79.29q-9.91,1.77-19.33,3.56c-1.17.22-1.9.22-2.14,1.58a7.35,7.35,0,0,1-.55,1.73q-1.15,2.57-2.28,4.73-2.66,5.1-5.28,10.63-1.25,2.6-2.4,5-4.56,9.35-7.43,14.87-3.27,6.28-5.35,9.82a41.93,41.93,0,0,1-4.13,5.67c-.38.46-.88.74-1.26,1.28-.65.9-1.33,1.78-2.05,2.66-.32.39-.51,1.17-.87,1.67a78.29,78.29,0,0,1-7.33,8.48q-3.21,3.3-8.3,7.72A81.55,81.55,0,0,1,228,576a46.22,46.22,0,0,1-5.22,1.87c-2.12.6-4.23,1.16-6.32,1.66a59.92,59.92,0,0,1-6.25,1.1,2,2,0,0,1-1.12-.18,5.08,5.08,0,0,1-1.42-1c-1.29-1.31-2.47-2.54-3.8-3.88a23.1,23.1,0,0,1-2.53-3c0-.05,0-.09,0-.12a23.06,23.06,0,0,1,3.18-1c.71-.16,1.4-.35,2.08-.54q7.2-2.08,11.64-3.83a78.27,78.27,0,0,0,18.08-10.2c3.18-2.39,6.19-5.21,9.12-7.81a67.67,67.67,0,0,0,8.27-8.64,108.12,108.12,0,0,0,6.4-9.12A138.42,138.42,0,0,0,269,515c1.28-2.83,2.58-5.69,3.79-8.58q3-7.28,6.19-14.53c.32-.74.61-1.45.86-2.13a17.86,17.86,0,0,1,2.43-5.17A1.57,1.57,0,0,1,283,484q5.78-2,11.23-4.29,6.72-2.88,12.24-5.19a111.27,111.27,0,0,0,12-5.92c1.43-.8,2.87-1.59,4.31-2.35.33-.17.72-.14,1-.31s.21-.18-.05-.17q-6.17.27-11.67.87c-3,.33-6.12.68-9.3,1.07a10.86,10.86,0,0,1-1.62.08c-.81,0-.9-1.32-.9-1.91q0-28.62,0-57.25,0-5.61-.06-11.64c0-1.09,0-2-.89-2.54a33,33,0,0,0-3.81-1.78c-3-1.25-5.75-2.46-8.7-3.6q-7-2.69-12.12-5.12a15.82,15.82,0,0,0-2.69-1c-1.28-.32-2-.52-2.26-.6a53.15,53.15,0,0,0-7.16-2.19c-1.11-.21-2.14-.58-3.24-.86-.49-.13-.73-.5-1.19-.67l-5.7-2c-1.23-.44-2.58-.81-3.86-1.25-.64-.22-1.15-.38-1.54-.5q-7.78-2.34-10.65-3.1-5.34-1.41-13.49-3.1c-2.13-.45-4.25-.73-6.43-1.14-3.86-.74-7.77-1.12-11.67-1.71a10.88,10.88,0,0,1-1.49-.39.72.72,0,0,1-.52-.69v-9.58a.79.79,0,0,1,.44-.72,19.46,19.46,0,0,0,5.31-3.51.91.91,0,0,0,.12-1q-.6-1.47-1.23-2.85a6.2,6.2,0,0,1-.52-2.05.24.24,0,0,1,.25-.25,94.55,94.55,0,0,1,17.15,1.58,16.07,16.07,0,0,1,2.79.79,8.81,8.81,0,0,0,2.66.54q.27,0,.18-.24a3.76,3.76,0,0,0-1.12-1.85c-.72-.55-1.35-1.21-2.09-1.73q-4.2-2.91-8.33-5.88a5.19,5.19,0,0,0-4.21-.5c-1.07.36-2.11.18-3.18.45-.13,0-.17,0-.13-.13a22.31,22.31,0,0,1,1.3-3c1.46-2.72,2.78-5.36,4-7.94l0,0,.27-.34c.12-.14.08-.22-.1-.24q-7.89-.66-13.74-.88a68.81,68.81,0,0,0-12,.64,55.79,55.79,0,0,0-15,4.42,7.62,7.62,0,0,0-2.24,1,.61.61,0,0,1-.18.07.55.55,0,0,0-.18.06,39.93,39.93,0,0,0-6.91,4.49,44.68,44.68,0,0,0-8.44,9.08q-1.45,2.08-2.94,4.16a2.88,2.88,0,0,1-2.54,1.52,2.61,2.61,0,0,1-2.18-1.12,18.88,18.88,0,0,1-1.59-2.66,45.86,45.86,0,0,1-2.39-5.65c-.57-1.69-1.28-3.37-1.74-5.11a9,9,0,0,0-5.06-6,8.79,8.79,0,0,0-2.6-.59c-1-.15-1.8,1.19-2,2a2.58,2.58,0,0,0,0,1.53l.11,2.83a4.88,4.88,0,0,0,.2,2.47,26.37,26.37,0,0,0,2.52,10.05,55.68,55.68,0,0,0,4.93,9,91.45,91.45,0,0,0,6.14,7.88,22.08,22.08,0,0,0,5.87,4.6.12.12,0,0,0,.15,0,27.35,27.35,0,0,0,3.43-3.69q3.15-4.14,6.22-8.21a38.16,38.16,0,0,1,5.32-5.94,10.68,10.68,0,0,1,2.73-1.54l4-1.68c3.2-1.37,6.56-2.6,9.72-3.83a6.32,6.32,0,0,0,3.35-2.53,21.43,21.43,0,0,1,2-3.1,35.21,35.21,0,0,1,7.76-7.11,6.83,6.83,0,0,1,4.67-1.51.35.35,0,0,1,.29.52q-1.54,2.65-2.85,5.13c-.29.56-.58,1.09-.86,1.6a15.38,15.38,0,0,0-.79,1.65c-.42,1.06-.91,2.08-1.29,3.17a42,42,0,0,0-1.59,5.67,42.61,42.61,0,0,1-1.35,5.11,3.1,3.1,0,0,1-1.32,1.63c-1.4.9-2.86,1.71-4.27,2.63q-5.23,3.44-10.18,6.86c-1,.69-2.06,1.47-3,2.25-2.12,1.78-4.1,3.33-5.94,4.67a3.47,3.47,0,0,1-2.25.64c-5,.08-10,.1-15,.47-2.8.2-5.14.28-7,.24a3.7,3.7,0,0,1-1.88-.59,120.36,120.36,0,0,1-13-9.27.7.7,0,0,1-.21-1,11.13,11.13,0,0,1,.81-1.62c.52-.71,1-1.43,1.54-2.15a1.8,1.8,0,0,0,.27-.62,10.77,10.77,0,0,0-.86-7.06,37.25,37.25,0,0,1-3-8.86,10.66,10.66,0,0,1,.14-3.69q1.14-6.44,1.6-8.37c.35-1.49.72-2.8,1.11-3.94a2.37,2.37,0,0,1,2.69-1.63c1,.06,2-.21,3-.21,3.91,0,7.77.33,11.61.56,1,0,2.27.12,2.32,1.41a25.58,25.58,0,0,0,.12,3.51,9.88,9.88,0,0,0,.62,2.11c.14.32.33.36.58.11,5.72-5.62,12.3-9.69,20.1-11.37a82.48,82.48,0,0,1,16.34-1.92q9.28-.15,18.73.28,6.24.28,12.29.6c2,.1,3.95,0,5.92.18a4.32,4.32,0,0,1,3.06,1.52q3.53,4.09,7.07,8c.46.51,1,.78,1.37,1.42.05.11,0,.13-.07.08a5.15,5.15,0,0,0-1.8-.57c-1.25-.17-2.44-.47-3.7-.62a64,64,0,0,0-7.46-.52c-1.68,0-3.44,0-5.27,0a.19.19,0,0,0-.22.21l0,1a.33.33,0,0,0,.21.33q2.82,1.22,5.22,2.52a14.43,14.43,0,0,1,2.47,1.67,35.12,35.12,0,0,1,4.27,4.12c1.15,1.4,2.35,2.83,3.57,4.29a27.33,27.33,0,0,0,4.85,4.15c1,.74,2.49,1.23,3.66,2a16.59,16.59,0,0,1,1.67,1.22,1.28,1.28,0,0,1,.49,1.08,15.72,15.72,0,0,0-.08,4.49.18.18,0,0,1-.25.21c-1-.39-2.42-.74-3-1.69a14.56,14.56,0,0,1-1.17-2.22,3.94,3.94,0,0,0-1.85-2,20.76,20.76,0,0,0-3.56-1.53c-.05,0-.09,0-.08.08q1,2.85,1.9,5.66a3.82,3.82,0,0,0,1.59,2.43c2.05,1.1,4,2.3,6.11,3.23q5,2.16,9.26,4.41a.3.3,0,0,0,.19,0c.11,0,.14-.08.08-.18a45.53,45.53,0,0,1-3.31-7.06,28.75,28.75,0,0,0-1.58-3.5.15.15,0,0,1,.11-.22q7.31-.87,14.61-1.26c2-.11,4.12-.35,6.09-.46q4.79-.28,12.84-.63a17.24,17.24,0,0,1,1.9.07.36.36,0,0,0,.24-.09,28.22,28.22,0,0,0,3.76-4.5,7.94,7.94,0,0,1,3.85-2.81c2.46-.94,4.93-2,7.46-2.81l6.8-2.17c.25-.08.3-.22.16-.44a.79.79,0,0,0-.36-.26c-1.76-.85-3.88-1.8-6.35-2.87q-6.28-2.72-12.5-5.44a.2.2,0,0,1-.08-.29,13.35,13.35,0,0,1,2.25-2.48c1.67-1.43,3.37-2.89,5.15-4.17q2.18-1.56,4.41-3.12c1.59-1.11,3.34-2,5-3q4-2.52,6.95-4.12,1.17-.64,2.43-1.26a11.47,11.47,0,0,0,1.46-1,.07.07,0,0,0,0-.13,95.45,95.45,0,0,1-12.11-3c-1.77-.56-3.32-1-4.65-1.28-2.94-.65-5.9-1.29-8.85-1.91l.05-.2,7.71-2c.15,0,.15-.07,0-.1-.38-.08-.76,0-1.15-.13a53.54,53.54,0,0,0-17.35-1,17.5,17.5,0,0,0-5.17,1.47c-3.15,1.31-6,3.06-9.22,4.59a114.32,114.32,0,0,0-12.83,7.54,47.8,47.8,0,0,0-9.11,7.51,28.56,28.56,0,0,1-2.24,2.18.93.93,0,0,1-.48.25c-.23,0-.31-.06-.23-.28.48-1.38.91-2.7,1.28-4a28.85,28.85,0,0,1,2.92-6.85,8.41,8.41,0,0,1,3.17-3.09c2.36-1.34,4.83-2.78,7.41-4.3,2.95-1.75,5.91-3.34,8.91-5a7.19,7.19,0,0,1,1.62-.67q3.6-1,6.66-1.7c5.13-1.22,11.1-2.24,16.68-3.4,5.08-1.06,10.28-2.21,15.47-3.14l11.66-2.1a2.49,2.49,0,0,1,1.26.1.37.37,0,0,1,.21.16,20.22,20.22,0,0,1,1.41,2.33q3.32,6.36,7.23,13.3,5.06,9,10.38,19.53c0,.08,0,.13-.07.15-1.27.26-2.46.44-3.57.56l-8.14.87c-3.21.34-6.52.57-9.91.67a.16.16,0,0,0-.11.26,48.21,48.21,0,0,1,3.11,3.8c.68.92,2.27,2.23,3.53,1.88a18.31,18.31,0,0,1,2.81-.2c2.23-.24,4.47-.44,6.7-.6a21.79,21.79,0,0,0,2.33-.43c.43-.08.47,0,.14.3-.8.66-1.79,1-2.61,1.68q-2.08,1.64-4.36,3.39a15.76,15.76,0,0,0-2.59,2.5.15.15,0,0,0,.08.24,1,1,0,0,0,.62,0c2.79-1,5.35-1.89,7.71-2.8q2.81-1.08,5.16-1.92c2.66-.95,5.41-2,8.13-2.84,7.69-2.43,14.42-4.39,21.14-6A20.56,20.56,0,0,0,372.2,325c2.8-1.45,5.64-3,8.54-4.56,5-2.73,10.26-5.34,15.21-7.5,2.89-1.27,5.86-2.61,8.74-3.7a142.38,142.38,0,0,1,18.8-5.65,2.43,2.43,0,0,1,.85,0,.23.23,0,0,1,.13.37,24.23,24.23,0,0,1-4.67,4.6c-1.12.75-2.23,1.43-3.34,2-1.51.84-4.34,2.69-8.46,5.56a4.48,4.48,0,0,0-.82.75,2.1,2.1,0,0,1-.58.49,8.08,8.08,0,0,0-1.57,1.16,16.9,16.9,0,0,1-1.42,1.19c-1.58,1.19-2.9,2.24-3.94,3.17-4.8,4.25-9.31,8.26-14.32,13.15-1.32,1.29-2.58,2.62-3.78,4-1.69,1.92-3.45,3.84-5,5.83q-3.15,4-4.09,5.32a120.72,120.72,0,0,0-7.37,11.71.6.6,0,0,1-.87.31,37.83,37.83,0,0,0-11-3.47l-2.82-.47c-1-.17-1.91-.29-2.85-.38-2.09-.18-4.28-.32-6.59-.4a89.75,89.75,0,0,0-24.7,2.85q-8.91,2.22-16,4.75-6.63,2.37-11.9,4.1c-.27.09-.57.08-.85.16s-.15.11,0,.19a10.06,10.06,0,0,0,3.32,1.38l7.09,1.74q13.22,3.19,28.05,7.61c5.87,1.75,11.46,3.34,17.09,5.19q6.23,2,11.21,3.44a8.41,8.41,0,0,0,1.11.23c.28,0,.3.13.06.28s-.52.2-.77.35q-6.94,4.06-13.54,8.64c-1.45,1-2.93,2.1-4.43,3.29-2.93,2.31-4.89,3.9-5.86,4.74-1.66,1.44-3.44,3.06-5.36,4.85a101.8,101.8,0,0,0-8,8.62q-1.19,1.41-3.09,4-1.45,2-3.09,3.94a10.57,10.57,0,0,1-1.89,1.64v0l0,.06s.06,0,.09,0a24.85,24.85,0,0,1,2.23-1.16,37.72,37.72,0,0,0,4.74-2c2.71-1.46,5.37-2.78,8-4q.81-.37,1.68-.87c.35-.2.48-.1.37.29a4.14,4.14,0,0,1-.42,1q-2.64,4.6-5.48,8.85l-3,4.5c-2.42,3.71-4.84,7.19-6.94,10.89a.33.33,0,0,0,.17.47,18.09,18.09,0,0,0,1.8.53c5.64,1.35,11.39,2.64,17.14,3.66q7,1.25,14.48,2.64c1.83.35,3.65.66,5.46.95q7.53,1.19,15.25,2.55c2,.35,4.12.55,6.18.92s3.93.51,6,.81c1.16.16,2.34.32,3.52.46q9.8,1.18,19.52,2.45c4.6.59,9,1.33,13.62,2.14,2.69.47,5.28,1.06,7.8,1.76.35.1.34.15,0,.17l-19.7.62Z" transform="translate(-113.33 -215.82)"/><path class="cls-2" d="M356,304.36c-1,.52-2,1-2.84,1.4-.61.3-.75.16-.4-.44a1.87,1.87,0,0,1,.38-.46,51.07,51.07,0,0,1,6.32-4.66,27.77,27.77,0,0,1,7.59-3.34c.6-.16.93-.41,1.6-.18a.36.36,0,0,1,.22.48.75.75,0,0,1-.33.39q-6,3.65-12.38,6.79h-.07s0,0-.05,0Z" transform="translate(-113.33 -215.82)"/><path class="cls-13" d="M218.44,314.48a33,33,0,0,1-4.22,0,.83.83,0,0,1-.8-.67c-.43-3,3.62-4.88,5.65-6.25,3.35-2.27,6.56-4.5,10.06-6.6a2,2,0,0,1,.92-.29q13.86-1,24.95-2.25c1.09-.12,2.19-.06,3.29-.26a.6.6,0,0,1,.45.09.11.11,0,0,1,0,.19c-4,1.91-7.83,4-11.59,6.24A111.8,111.8,0,0,0,234.87,313a6.22,6.22,0,0,1-4,1.33q-6.45,0-12.46.18Z" transform="translate(-113.33 -215.82)"/><path class="cls-13" d="M391.84,298.32a1.82,1.82,0,0,1-1.16.24l1.16-.24Z" transform="translate(-113.33 -215.82)"/><path class="cls-13" d="M210.57,304.21l3.67.6c.26,0,.28.12,0,.24-1,.47-1.87,1-2.86,1.38-2.1.88-4.06,1.7-5.86,2.47a52.55,52.55,0,0,0-5.26,2.93,9.34,9.34,0,0,0-2.49,2.6.3.3,0,0,1-.23.13,13.1,13.1,0,0,1-2.58.08.32.32,0,0,1-.21-.08,3.19,3.19,0,0,1-1.11-1.56,1.54,1.54,0,0,1,.36-1.49,9.7,9.7,0,0,1,1.85-1.79c1.66-1.22,3.1-2.23,4.34-3a7.19,7.19,0,0,0,.67-.37c.89-.69,1.79-1.32,2.7-1.91a1.8,1.8,0,0,1,.62-.27,3.88,3.88,0,0,1,.94-.27,21.22,21.22,0,0,1,4.21.12,9.47,9.47,0,0,0,1.61.11s0,0,0,0a.72.72,0,0,0-.43,0c-.21,0-.21.09,0,.12Z" transform="translate(-113.33 -215.82)"/><path class="cls-14" d="M291.25,304l-.05.2a1.06,1.06,0,0,1-.47-.07c-.12-.05-.12-.08,0-.09l.5,0Z" transform="translate(-113.33 -215.82)"/><path class="cls-13" d="M266,326.67q-5.19,2.58-7.88,4.1-4.65,2.64-9.06,4.67a14.18,14.18,0,0,0-2.36,1.44.14.14,0,0,1-.22-.13q.55-4.26,1.32-8.22c.37-1.95.6-3.06.69-3.34.74-2.33,2.16-3.6,4.33-5,2.66-1.69,5.28-3.4,8-5.07q1.77-1.09,4-2.55c2.13-1.39,5.19-3.24,9.15-5.56a7.19,7.19,0,0,1,3.42-1.14,14.48,14.48,0,0,1,2.79.29c8.06,1.44,15.25,2.94,23.43,4.71a13.31,13.31,0,0,1,2.4.75.36.36,0,0,1,0,.67,7.79,7.79,0,0,1-1.06.41q-13.8,4-26.93,8.8c-.76.27-1.47.62-2.22.89a101.16,101.16,0,0,0-9.83,4.26Z" transform="translate(-113.33 -215.82)"/><path class="cls-13" d="M454.51,328.24h0s0,0,0,0q-33.19,16.07-66.35,32.16a.25.25,0,0,1-.24,0l-5.63-3.18a.27.27,0,0,1-.14-.25v-2.18a.22.22,0,0,1,.16-.22q36.07-13.17,72.17-26.38s0,0,0,0Z" transform="translate(-113.33 -215.82)"/><path class="cls-14" d="M175.63,330.43a19.3,19.3,0,0,1-1.82.91,4,4,0,0,0-.72.41c-.32.22-.73.37-1,.54a51.13,51.13,0,0,0-5.14,3.29c-.39.32-.66.48-.81.47a39.93,39.93,0,0,1,6.91-4.49.55.55,0,0,1,.18-.06.61.61,0,0,0,.18-.07,7.62,7.62,0,0,1,2.24-1Z" transform="translate(-113.33 -215.82)"/><path class="cls-14" d="M134.6,331.66a3.93,3.93,0,0,1,0,1.53,2.58,2.58,0,0,1,0-1.53Z" transform="translate(-113.33 -215.82)"/><path class="cls-15" d="M246.82,344.2l2.4-1.05a17.79,17.79,0,0,0,5.3-2.83,23.87,23.87,0,0,1,3.58-2.81,13.69,13.69,0,0,1,5.46-1.52q6.35-.45,13-.88a11.63,11.63,0,0,1,2.52.09c.25.05.32.18.19.4a6.32,6.32,0,0,1-1,1.27c-2.22,2.1-5.27,5.05-5.55,8.09a.61.61,0,0,1-.53.54,14.92,14.92,0,0,1-1.78.14q-5.53.08-9.64.17a33.85,33.85,0,0,0-9.21,1.55,1.15,1.15,0,0,1-1-.13,34.27,34.27,0,0,1-4-2.66.12.12,0,0,1,.05-.21.59.59,0,0,0,.24-.16Z" transform="translate(-113.33 -215.82)"/><path class="cls-14" d="M134.73,336l.2,2.47a4.88,4.88,0,0,1-.2-2.47Z" transform="translate(-113.33 -215.82)"/><path class="cls-16" d="M249.22,343.15l-2.4,1.05a6.46,6.46,0,0,1,2.4-1.05Z" transform="translate(-113.33 -215.82)"/><path class="cls-5" d="M352.39,354.75l.09,0c.06,0,.07,0,0,.05a.84.84,0,0,1-.31.08q-8,.42-15.92.06c-3-.14-6.4-.48-9.6-.73-1.26-.09-2.62-.22-4.09-.37q-6.74-.67-13.49-1.07a.19.19,0,0,1-.12-.32c1.33-1.33,3.5-3.21,5.3-3.29.84,0,1.8,0,2.87,0,3.72.2,7.35.47,10.9.78a118.24,118.24,0,0,1,24.36,4.75Z" transform="translate(-113.33 -215.82)"/><path class="cls-13" d="M184.1,371.53a2.08,2.08,0,0,1,.45-.79,13.64,13.64,0,0,1,2.36-1.94,15.79,15.79,0,0,0,2-1.43,21.14,21.14,0,0,1,2.57-2,21.35,21.35,0,0,1,3.65-1.62.34.34,0,0,1,.28,0,1.41,1.41,0,0,1,.37.36.62.62,0,0,1,0,.62,8.87,8.87,0,0,0-.53,1c-.34,1-.67,2.06-1,3.14a13.28,13.28,0,0,1-.69,1.8l-.86,1.77a.38.38,0,0,1-.23.2.42.42,0,0,0-.24.23.42.42,0,0,1-.09.14,5.4,5.4,0,0,1-1.24.85,5.5,5.5,0,0,1-2,.43,4.55,4.55,0,0,1-2-.32,23.51,23.51,0,0,1-3-1.42.3.3,0,0,1-.17-.21.5.5,0,0,1,.18-.6.53.53,0,0,0,.21-.26Z" transform="translate(-113.33 -215.82)"/><path class="cls-13" d="M134.82,373.31c.79-.26,1.57.63,2,1.2a.57.57,0,0,1-.11.78,8.81,8.81,0,0,1-2.43,1.5,4.86,4.86,0,0,1-2.3.66.27.27,0,0,1-.2-.16,1.73,1.73,0,0,1,.17-1.93,6.73,6.73,0,0,1,2.91-2.05Z" transform="translate(-113.33 -215.82)"/><path class="cls-12" d="M220.57,386.9c-1.44-.6-3.42-1.52-6-2.78a38.63,38.63,0,0,0-8.07-2.81,25.29,25.29,0,0,1,.59-5.38.25.25,0,0,1,.17-.19,1.72,1.72,0,0,1,.72,0q3.38.56,6.69,1.39a23.78,23.78,0,0,1,4.44,1.54,18.77,18.77,0,0,1,1.77,1.18.37.37,0,0,1,.16.22,2.71,2.71,0,0,1,.09.75c-.08,1.76-.27,3.8-.6,6.12Z" transform="translate(-113.33 -215.82)"/><path class="cls-13" d="M441.34,383.69q-10.87-.88-19.15-1.34l-.9-.06q-9.89-.65-20.74-1.49c-.81-.06-2.05-.25-2.26-1.22a4,4,0,0,1,.71-3.25,1,1,0,0,1,.93-.43c1.46,0,2.82.11,4.06.24q11.68,1.2,25.33,2.7,9.38,1,19,2.4Q454,382,461,383.11c1.39.21,2.76.53,4.15.77a.24.24,0,0,1,.18.1.16.16,0,0,1-.09.23l-1.87.58a8.15,8.15,0,0,1-2.87.3q-10.93-.72-19.19-1.4Z" transform="translate(-113.33 -215.82)"/><path class="cls-12" d="M165.7,391.77a1.3,1.3,0,0,0-.58-.19,2.11,2.11,0,0,1-.58-.12c-3.14-1.19-6.36-2.37-9.63-3.54.17-2.07.46-4.3.85-6.71a2.22,2.22,0,0,1,.44-1.15,1.41,1.41,0,0,1,2-.12q3.45,2.56,6.95,5.32a8.19,8.19,0,0,1,1.58,1.6.38.38,0,0,1,.07.25,8.91,8.91,0,0,1-.36,2.33c-.28.81-.53,1.59-.75,2.33Z" transform="translate(-113.33 -215.82)"/><path class="cls-12" d="M239.73,388.31a17.74,17.74,0,0,0-4.83-2c-1.45-.35-2.68-.69-3.68-1a17.7,17.7,0,0,0,1.6-4.6.12.12,0,0,1,.17-.1c2,.54,3.66,1.72,5.57,2.41.81.28,1.61.6,2.41,1a.62.62,0,0,1,.32.81l-1.56,3.59Z" transform="translate(-113.33 -215.82)"/><path class="cls-2" d="M144.14,403.24c-1.11,2.31-2.3,4.65-3.59,7-.12.21-.19.2-.23,0-.44-2.64-.87-5.27-1.41-7.88s-.95-4.93-1.28-7.07a45.06,45.06,0,0,1,.16-12.21,11.59,11.59,0,0,1,.38-1.88.17.17,0,0,1,.26-.09c1.53,1.13,2.59,3,3.63,4.48a30.17,30.17,0,0,0,4.19,4.54,1.42,1.42,0,0,1,.42,1,18.11,18.11,0,0,1-.14,3.65,29.64,29.64,0,0,1-2.39,8.51Z" transform="translate(-113.33 -215.82)"/><path class="cls-2" d="M220.57,386.9a38.55,38.55,0,0,1-2.14,7.38,67.36,67.36,0,0,1-10.39,18,15.41,15.41,0,0,1-3.54,3.24,1.51,1.51,0,0,1-.45.2c-.21.06-.3,0-.26-.24q.77-4.66,1.05-9.12.72-11.23,1.35-21.6c.07-1.15.25-2.25.35-3.43a38.63,38.63,0,0,1,8.07,2.81c2.54,1.26,4.52,2.18,6,2.78Z" transform="translate(-113.33 -215.82)"/><path class="cls-2" d="M190.18,383a17,17,0,0,1,1.92.82.33.33,0,0,1,.13.47c-.56.94-1.09,1.9-1.71,2.78q-1.29,1.83-2.61,3.68c-.83,1.16-1.22,1.84-2.55,1.95a.54.54,0,0,1-.52-.29,2.86,2.86,0,0,1-.32-1.32q0-4.22,0-8.32a8.48,8.48,0,0,1,.1-1.11.14.14,0,0,1,.16-.14,5.33,5.33,0,0,1,1.1.14c1.24.33,2.66.78,4.27,1.34Z" transform="translate(-113.33 -215.82)"/><path class="cls-2" d="M231.22,385.25c1,.33,2.23.67,3.68,1a17.74,17.74,0,0,1,4.83,2,18.53,18.53,0,0,1-1.85,4.26,19.85,19.85,0,0,1-6.46,6.4.19.19,0,0,1-.29-.11A5,5,0,0,1,231,398q-.37-5.07-.52-6.75a12.82,12.82,0,0,1,.74-6Z" transform="translate(-113.33 -215.82)"/><path class="cls-12" d="M255,396.36c-1.11,0-2.2.08-3.28.14a2.87,2.87,0,0,0-1.13.3,4.38,4.38,0,0,1-1.17.4c-1.15.23-2.31.42-3.46.58a1.46,1.46,0,0,1-1.06-.33l3.93-9.5a.29.29,0,0,1,.41-.14,16,16,0,0,1,3.18,2.4,11.22,11.22,0,0,0,1.05.91.29.29,0,0,1,.13.19,1.74,1.74,0,0,0,.42.78,2.5,2.5,0,0,1,.39,1.71,14.93,14.93,0,0,0,.59,2.56Z" transform="translate(-113.33 -215.82)"/><path class="cls-2" d="M165.7,391.77a74.92,74.92,0,0,1-2.11,7.89,30.21,30.21,0,0,1-2,4.79c-1,1.86-2,3.75-3.17,5.49l-4.26,6.52c-.2.31-.3.28-.3-.08q0-13.19.9-26.56c0-.46.07-1.09.14-1.9,3.27,1.17,6.49,2.35,9.63,3.54a2.11,2.11,0,0,0,.58.12,1.3,1.3,0,0,1,.58.19Z" transform="translate(-113.33 -215.82)"/><path class="cls-2" d="M255,396.36a61.66,61.66,0,0,1,2.2,9.76,72.75,72.75,0,0,1,1,8.28,43.08,43.08,0,0,1-.35,8.79,6.41,6.41,0,0,1-.78,2.29.13.13,0,0,1-.22,0,5.43,5.43,0,0,1-.56-1.07,60.23,60.23,0,0,0-2.41-5.53c-1.19-2.35-2.25-4.72-3.46-7q-2.62-5-5.2-9.73a17.8,17.8,0,0,1-1.13-2.78.31.31,0,0,1,0-.25l.76-1.66a1.46,1.46,0,0,0,1.06.33c1.15-.16,2.31-.35,3.46-.58a4.38,4.38,0,0,0,1.17-.4,2.87,2.87,0,0,1,1.13-.3c1.08-.06,2.17-.11,3.28-.14Z" transform="translate(-113.33 -215.82)"/><path class="cls-17" d="M351.71,441.09l26-40.1a.25.25,0,0,1,.24-.11l13.51,2.05c.09,0,.12.07.08.16l-7.86,16.6a.15.15,0,0,1-.19.1l-9.6-1.45a.21.21,0,0,0-.23.1l-8.27,12.73a.09.09,0,0,0,.06.13l11.76,1.78a.1.1,0,0,1,.07.13l-7.83,16.54a.21.21,0,0,1-.23.12l-41.4-6.3a.11.11,0,0,1-.08-.18l29.53-45.56a.16.16,0,0,1,.16-.08L371,399.82a.08.08,0,0,1,.07.13l-7.85,16.6a.2.2,0,0,1-.23.12l-9.57-1.45a.25.25,0,0,0-.24.11L344.92,428a.1.1,0,0,0,.07.15L356.78,430a.06.06,0,0,1,0,.09l-5.2,11c-.24.49-.2.51.09,0Z" transform="translate(-113.33 -215.82)"/><path class="cls-13" d="M402.07,399.38c5.74-.39,11.46,0,17.21-.1,4.06-.06,8-.1,12-.11a37.22,37.22,0,0,0,4.09,0,.16.16,0,0,1,.18.14.17.17,0,0,1-.12.21c-4.86,1.74-8.37,3.36-14.31,6.1-.77.36-1.45.78-2.18,1.18a.49.49,0,0,1-.32.07.27.27,0,0,1-.11-.05c-.08-.06-.08-.12,0-.2a8.45,8.45,0,0,0,1.23-1.88.56.56,0,0,0-.36-.78,28.16,28.16,0,0,0-2.8-.54q-5.67-.8-11.63-1.4a6.67,6.67,0,0,1-1-.18,4.19,4.19,0,0,0-.9-.14c-.92,0-1.21-1.3-1.15-2.05a.25.25,0,0,1,.26-.26Z" transform="translate(-113.33 -215.82)"/><path class="cls-13" d="M291.51,418.84c.25,1,.13,1-.38.16a25.11,25.11,0,0,0-2.28-3.16c-1.62-1.9-3.13-3.77-4.52-5.59a63.47,63.47,0,0,1-5.47-8.42,8.39,8.39,0,0,1-.78-2c0-.13,0-.16.11-.08a3,3,0,0,0,1.31.52c.7.11,1.27,1.05,1.64,1.61a4.08,4.08,0,0,0,2.66,1.61.46.46,0,0,0,.54-.33l.65-2.5q0-.19.24-.12a.65.65,0,0,1,.3.3,21.58,21.58,0,0,1,1.36,2.45,82.3,82.3,0,0,1,3.18,9.19c.58,2.06.87,4.28,1.44,6.37Z" transform="translate(-113.33 -215.82)"/><path class="cls-17" d="M379.47,430.06l5.42.84a.1.1,0,0,1,.08.13l-1.72,3.62a.09.09,0,0,0,.08.13l3.14.48a.1.1,0,0,0,.11-.07l9.66-31.41a.09.09,0,0,1,.11-.07l16.19,2.46a.09.09,0,0,1,.08.13L403.33,426a.1.1,0,0,1-.1.05l-5.41-.87a.1.1,0,0,1-.07-.14l1.31-2.74a.1.1,0,0,0-.07-.14l-1.36-.21a.09.09,0,0,0-.11.06l-9.34,30.67a.09.09,0,0,1-.11.06l-18-2.72a.1.1,0,0,1-.07-.14l9.36-19.79a.09.09,0,0,1,.1-.05Z" transform="translate(-113.33 -215.82)"/><path class="cls-17" d="M182.55,428.62a1.2,1.2,0,0,1-.15-.45,1.86,1.86,0,0,0-.08-.41q-1.87-6.13-3.63-11.95a45.43,45.43,0,0,1-1.2-6c-.08-.45,0-.46.16,0,.32.77.65,1.5,1,2.21q2,4.5,4.46,10a41.4,41.4,0,0,1,1.75,4.63c.75,2.45,1.5,4.93,2.27,7.44,1.24,4,2.19,8.23,3.23,12.34.31,1.23.49,2.47.69,3.74a19.59,19.59,0,0,1,.14,3.83,9,9,0,0,1-1,3.62q-1.12,2.26-2.17,4.51c0,.07-.08.08-.13,0a.1.1,0,0,1,0-.09q.62-2.85,1.46-5.55a5.52,5.52,0,0,0,.25-1.46,6,6,0,0,0-.06-1.51q-3.48-13-6.68-23.86c-.08-.26-.15-.51-.21-.76a.9.9,0,0,0-.08-.21Z" transform="translate(-113.33 -215.82)"/><path class="cls-14" d="M216.38,466.88a36.39,36.39,0,0,0,.86-4.54c.4-3.24-.23-6.74-3.86-7.69a7.65,7.65,0,0,0-3.77,0,39.33,39.33,0,0,1,11-7,21.94,21.94,0,0,1,5.69-1.66c2.15-.3,4.38-.52,6.71-.66a25.29,25.29,0,0,0,8.5-1.75q.17-.07.21.09a14.26,14.26,0,0,0,1.08,2.52c.07.12,0,.17-.1.14a4,4,0,0,0-3.26.69,14.59,14.59,0,0,0-2.66,2.38l-3.84,4.45a12,12,0,0,1-.87.9,113.11,113.11,0,0,1-12.2,9.79c-1.08.75-2.25,1.51-3.49,2.27Z" transform="translate(-113.33 -215.82)"/><path class="cls-13" d="M284.49,449.32l.92-.86a1.07,1.07,0,0,1,1.56.1l.42.51a1.06,1.06,0,0,1,0,1.4l-.67.76a1.07,1.07,0,0,1-1.35.2l-.69-.4a1.08,1.08,0,0,1-.18-1.71Z" transform="translate(-113.33 -215.82)"/><path class="cls-16" d="M209.61,454.69a7.65,7.65,0,0,1,3.77,0c3.63,1,4.26,4.45,3.86,7.69a36.39,36.39,0,0,1-.86,4.54,50.64,50.64,0,0,1-12.09,5.81s0,0,0,.05h0s0,0,0,0A97.07,97.07,0,0,0,215.07,470c.16,0,.15.21,0,.56a.55.55,0,0,0-.42,0,95.93,95.93,0,0,1-14.54,5.26,49.29,49.29,0,0,1-18.17,1.65.11.11,0,0,1,0-.21,30.23,30.23,0,0,0,2.9-1,52.79,52.79,0,0,0,16.5-10.41c.51-.5,1-1,1.6-1.42a1.28,1.28,0,0,0,.28-.3c.18-.29.17-.43,0-.45a22.55,22.55,0,0,1,4.24-8.21,40.89,40.89,0,0,1,5.4-5.37s.07,0,.09,0h0s0,0,0,0a41.17,41.17,0,0,0-7.91,9.6s0,0,0,.05h0s0,0,.06,0a9.33,9.33,0,0,1,1.09-1.49q1.65-1.85,3.48-3.56Z" transform="translate(-113.33 -215.82)"/><path class="cls-13" d="M391.62,457.32a.37.37,0,0,1-.18,0,10.29,10.29,0,0,0-2.86-.24c-.82,0-1.63.05-2.42,0a71.16,71.16,0,0,1-13.2-1.25c-1.33-.28-2.64-.4-4-.69a9.82,9.82,0,0,1-3.16-1.26.25.25,0,0,1,.06-.45,3.35,3.35,0,0,1,1.24-.11l3.45.27c3.22.23,6.76.64,10.61,1.25,1.09.17,2.19.37,3.3.62l3.23.68c1.22.25,2.68.61,4.39,1.08q.18,0,0,.09a.44.44,0,0,1-.28,0,.27.27,0,0,0-.2,0Z" transform="translate(-113.33 -215.82)"/><path class="cls-13" d="M287.82,458.73a1.88,1.88,0,0,1-1.44-1.36,1.63,1.63,0,0,1,.86-2.31c.61-.3,1.19-.57,1.75-.83a.51.51,0,0,1,.55.09,4.21,4.21,0,0,1,1.23,2,.42.42,0,0,1,0,.27,2.9,2.9,0,0,1-2.95,2.18Z" transform="translate(-113.33 -215.82)"/><path class="cls-14" d="M212.8,475.67l1.86-4.28a1.57,1.57,0,0,0,.39-.85c.17-.35.18-.54,0-.56a117.29,117.29,0,0,0,26-11.8l1.71-1.06c.29-.17.32-.14.09.11a61.4,61.4,0,0,1-16.06,12.07,118.63,118.63,0,0,1-14,6.37Z" transform="translate(-113.33 -215.82)"/><path class="cls-13" d="M203.15,463.65c.2,0,.21.16,0,.45a1.28,1.28,0,0,1-.28.3c-.55.45-1.09.92-1.6,1.42a52.79,52.79,0,0,1-16.5,10.41,30.23,30.23,0,0,1-2.9,1,.11.11,0,0,0,0,.21,49.29,49.29,0,0,0,18.17-1.65,95.93,95.93,0,0,0,14.54-5.26.55.55,0,0,1,.42,0,1.57,1.57,0,0,1-.39.85q-5.28,2.76-10.44,5c-1.8.8-4.11,1.7-6.93,2.72A65,65,0,0,1,177.58,483a69.26,69.26,0,0,1-11.39-4.48.53.53,0,0,0-.28,0,.07.07,0,0,0,0,.12,63.25,63.25,0,0,0,19.36,12.71,74.87,74.87,0,0,1-8.22-1.92q-4.44-1.26-8.62-2.54c-.33-.1-.36,0-.09.17l3.4,2.72a40.82,40.82,0,0,1-6.73-2.55,52,52,0,0,0-6-2.65,121.36,121.36,0,0,1-14.76-9.53,22.59,22.59,0,0,1-3.09-2.88,16.35,16.35,0,0,0-2-1.58c-1.78-1.48-3.53-3.08-5.23-4.78-.11-.11-.09-.13.05-.07a100.08,100.08,0,0,0,32.38,8.2c1.39.12,2.84.15,4.23.2A85.84,85.84,0,0,0,187.27,473a.74.74,0,0,0,.61-.63.23.23,0,0,1,.16-.18,37.33,37.33,0,0,0,14.72-8,1.28,1.28,0,0,0,.39-.59Z" transform="translate(-113.33 -215.82)"/><path class="cls-14" d="M206.66,485.45a51,51,0,0,0,4.26-6.61l1.37-.38a146.39,146.39,0,0,0,33.37-14.21s0,0,0,0,0,0,0,0a80.06,80.06,0,0,1-13,10.41c-.22.14-.2.23.06.26a1.83,1.83,0,0,0,.77-.15q2.81-1,5-2.07c.82-.4.87-.31.16.25a43.41,43.41,0,0,1-6.13,4.05,70.57,70.57,0,0,1-25.85,8.48Z" transform="translate(-113.33 -215.82)"/><path class="cls-14" d="M401.78,468.19a4.79,4.79,0,0,1-1.84.19l1.84-.19Z" transform="translate(-113.33 -215.82)"/><path class="cls-16" d="M214.66,471.39l-1.86,4.28q-6.45,2.54-13.13,4.73c-.4.13-.39.23,0,.32a4.34,4.34,0,0,0,1.24.07,45.35,45.35,0,0,0,10-2,51,51,0,0,1-4.26,6.61q-1.75.29-3.87.42A71.82,71.82,0,0,1,177.58,483a65,65,0,0,0,19.71-3.89c2.82-1,5.13-1.92,6.93-2.72q5.16-2.28,10.44-5Z" transform="translate(-113.33 -215.82)"/><path class="cls-12" d="M266.9,476.32a.33.33,0,0,0,0-.3.63.63,0,0,0-.65-.06c-.68.3-1.37.58-2.08.86-1.85.71-4,1.61-6.56,2.69a.49.49,0,0,0-.27.47,5,5,0,0,1-.08-2.14,3.92,3.92,0,0,1,1.59-1.7c.82-.52,1.69-1,2.59-1.55q2.36-1.33,5.1-2.84a.17.17,0,0,1,.26.14l.14,4.43Z" transform="translate(-113.33 -215.82)"/><path class="cls-2" d="M266.9,476.32a3.69,3.69,0,0,1-.45,2.83q-3,4.65-5.95,9.7a.23.23,0,0,1-.39,0,4.24,4.24,0,0,1-.63-1.14A44.12,44.12,0,0,1,257.3,480a.49.49,0,0,1,.27-.47c2.53-1.08,4.71-2,6.56-2.69.71-.28,1.4-.56,2.08-.86a.63.63,0,0,1,.65.06.33.33,0,0,1,0,.3Z" transform="translate(-113.33 -215.82)"/><path class="cls-17" d="M346.32,487.8a.94.94,0,0,1-.37.11l-.36,0-33.65,6.11a.27.27,0,0,0-.2.14L299.4,516.31a.33.33,0,0,1-.22.16L286,518.72a.39.39,0,0,1-.4-.57L299,493.38a.28.28,0,0,1,.2-.15q36.89-6.48,73.81-13a5.09,5.09,0,0,1,2-.12l6.08,1.29c.28.05.28.11,0,.16l-34.14,6.18h-.36a.46.46,0,0,0-.26.07Z" transform="translate(-113.33 -215.82)"/><path class="cls-16" d="M159,484.6a52,52,0,0,1,6,2.65,40.82,40.82,0,0,0,6.73,2.55,48.26,48.26,0,0,0,8.86,4.29,26.37,26.37,0,0,1-3-.18,3.46,3.46,0,0,1-.91-.19q-9-4.17-17.65-9.12Z" transform="translate(-113.33 -215.82)"/><path class="cls-2" d="M241.33,522.74a70.84,70.84,0,0,1-4.65-17.53,45.55,45.55,0,0,1,.89-16.52,13.46,13.46,0,0,1,.72-2.07c.05-.11.1-.11.14,0q2.87,8.47,6,17.06a94.49,94.49,0,0,0,3.92,9.2c.24.49.54,1.19,0,1.59a13.14,13.14,0,0,0-2.59,2.57q-2.13,2.85-4.32,5.7a.07.07,0,0,1-.11,0Z" transform="translate(-113.33 -215.82)"/><path class="cls-2" d="M250.57,491.34a16.78,16.78,0,0,1,3.7-4.65.19.19,0,0,1,.31.09,9.61,9.61,0,0,1,.34,2.29c0,2.84.33,5.78.28,8.48,0,1.82,0,3.77,0,5.88a1.93,1.93,0,0,1-.29,1.07.2.2,0,0,1-.21.09,4,4,0,0,1-1.38-.55,30.62,30.62,0,0,1-3.66-3,1.88,1.88,0,0,1-.73-1.37c0-.09.06-.57.19-1.45.22-1.53.45-3.12.68-4.78a6.7,6.7,0,0,1,.77-2.15Z" transform="translate(-113.33 -215.82)"/><path class="cls-14" d="M185.24,491.37a54.61,54.61,0,0,0,7.57,2.6c.42.11.41.18,0,.2a97.66,97.66,0,0,1-12.22-.08,48.26,48.26,0,0,1-8.86-4.29l-3.4-2.72c-.27-.21-.24-.27.09-.17q4.18,1.27,8.62,2.54a74.87,74.87,0,0,0,8.22,1.92Z" transform="translate(-113.33 -215.82)"/><path class="cls-17" d="M319.53,500.52l-5.69,10.16s0,0-.06.05l-6,1a.08.08,0,0,1-.09-.12l5.61-10.37s0,0,.06,0l6.08-.8a.08.08,0,0,1,.08.12Z" transform="translate(-113.33 -215.82)"/><path class="cls-2" d="M236.18,529.54a56.3,56.3,0,0,0-7,.41c-.31,0-.88.09-1.73.16a14.76,14.76,0,0,0-1.72.23,11,11,0,0,1-.72-1.94,9,9,0,0,1,.27-3c.53-2.45,1.23-5.07,2.12-7.87q1.59-5,3.27-9.51a5.73,5.73,0,0,1,.88-1.58.16.16,0,0,1,.27,0,3.91,3.91,0,0,1,.27,1.07,136.31,136.31,0,0,0,2.22,15q.3,1.49,1.84,7Z" transform="translate(-113.33 -215.82)"/><path class="cls-2" d="M167.4,519a45.69,45.69,0,0,0,2.87,5.06,4.18,4.18,0,0,1,.41,1,.2.2,0,0,1-.06.25,12.41,12.41,0,0,0-2.22,2.56c-.7,1.09-1.68,1.8-2.22,3.08a2.82,2.82,0,0,1-1.25,1.43.36.36,0,0,1-.49-.17,25.07,25.07,0,0,1-2.3-11.67q.17-3.86.52-6.74a8.49,8.49,0,0,1,.72-2.24.19.19,0,0,1,.28-.08,1.79,1.79,0,0,1,.6.76,35.36,35.36,0,0,0,1.44,3.36c.58,1.14,1.15,2.29,1.7,3.45Z" transform="translate(-113.33 -215.82)"/><path class="cls-13" d="M312.7,527.86s0,0,.06,0,0,0,0,0v0l0,0c-4.43,1.32-8.72,2.56-12.84,3.72-3.22.9-5.94,1.8-8.93,2.64-2.31.65-4.89,1.43-7.72,2.36,0,0,0,0,0,0l.62-2.32a.14.14,0,0,1,.08-.1q8.16-2.74,16.5-5.46a7.77,7.77,0,0,1,2.1-.39q5.1-.26,10.14-.46Z" transform="translate(-113.33 -215.82)"/><path class="cls-2" d="M210.2,553.84a2.67,2.67,0,0,0-1.16,0l-1.1.24c-1.53.15-3.28.25-5.22.32a11.9,11.9,0,0,0-2.38.21,26.19,26.19,0,0,0-4,1.25,73.77,73.77,0,0,1-1.8-27,5.43,5.43,0,0,1,.19-.85c0-.1.09-.12.17,0a1.88,1.88,0,0,1,.45.56c1.46,2.87,2.78,5.38,3.95,7.55a188.35,188.35,0,0,0,10.91,17.74Z" transform="translate(-113.33 -215.82)"/><path class="cls-12" d="M236.18,529.54l2.33,6.81a.14.14,0,0,1-.11.18c-1.36.26-2.73.25-4,.52s-2.69.5-4.12.68a1.06,1.06,0,0,1-1.14-.49,41.45,41.45,0,0,1-3.34-6.9,14.76,14.76,0,0,1,1.72-.23c.85-.07,1.42-.12,1.73-.16a56.3,56.3,0,0,1,7-.41Z" transform="translate(-113.33 -215.82)"/><path class="cls-2" d="M157.16,531.33c1.93,4.5,3.75,9,6.16,13.38a7.27,7.27,0,0,0,1.49,1.92.28.28,0,0,1,0,.43c-.93.7-1.86,1.41-2.79,2.14-1.12.88-2.15,1.94-3.29,2.8a.32.32,0,0,1-.48-.14,22.83,22.83,0,0,1-1-3.67,62.74,62.74,0,0,1-.87-15.13,8.38,8.38,0,0,1,.29-1.7c.14-.47.31-.48.5,0Z" transform="translate(-113.33 -215.82)"/><path class="cls-2" d="M181.76,552.05c.94,1.92,2.09,3.64,3,5.56a.22.22,0,0,1-.13.3,19.8,19.8,0,0,1-2,.53q-3.66.75-7.37,1.2a.73.73,0,0,1-.82-.5,40.85,40.85,0,0,1-2.48-7.92c-.28-1.5-.51-3.21-.69-5.11a39.21,39.21,0,0,1,.47-10.45,23.12,23.12,0,0,1,1.14-4.33.17.17,0,0,1,.31,0,12.37,12.37,0,0,1,1,2q.93,2.64,1.92,5.37a140.13,140.13,0,0,0,5.7,13.36Z" transform="translate(-113.33 -215.82)"/><path class="cls-2" d="M223.92,537.09a3,3,0,0,0-1.67.37q-2.43,1.18-4.71,2.33c-1.12.57-2.32.82-3.42,1.46a3.66,3.66,0,0,1-.94.36l-1,.21-.1-.05a.15.15,0,0,1,0-.21,55.81,55.81,0,0,1,6.38-6.95l3.54-3.28c.15-.14.25-.12.31.07.29.87.57,1.73.83,2.59a15.92,15.92,0,0,0,1,2.36c.1.21,0,.46-.21.74Z" transform="translate(-113.33 -215.82)"/><path class="cls-17" d="M235.23,546.48q5.79-5.87,11.44-11.26c.27-.26.36-.21.28.16a.89.89,0,0,1-.16.34,55.77,55.77,0,0,1-4.19,5.59,107.27,107.27,0,0,1-12.73,12.18c-.25.2-.34.15-.28-.16l.08-.39a.26.26,0,0,0-.13-.31,1.12,1.12,0,0,0-.69-.2c-.19,0-.21,0-.07-.16,3-2.49,5.11-4.43,6.45-5.79Z" transform="translate(-113.33 -215.82)"/><path class="cls-12" d="M223.92,537.09a26.82,26.82,0,0,0,3.73,6.75,4,4,0,0,1,.54,1.12.27.27,0,0,1,0,.23,4.32,4.32,0,0,1-2.29,1.5,1.6,1.6,0,0,1-1,0c-1.62-.58-3.1-1.43-4.73-2-2.38-.85-4.66-1.65-6.86-2.38a7,7,0,0,1-1.08-.44l1-.21a3.66,3.66,0,0,0,.94-.36c1.1-.64,2.3-.89,3.42-1.46q2.28-1.14,4.71-2.33a3,3,0,0,1,1.67-.37Z" transform="translate(-113.33 -215.82)"/><path class="cls-17" d="M210.67,564c-1.13.39-2.34.78-3.6,1.18a32.82,32.82,0,0,1-3.67.92q-2.4.43-4.56.72a76.51,76.51,0,0,1-8.65.54q-14.13.17-28.32.27a18.5,18.5,0,0,0-2.14.13,13.85,13.85,0,0,1-2,.12A.87.87,0,0,1,157,567a40,40,0,0,1,.47-8,.37.37,0,0,1,.4-.35l5.53,0a.42.42,0,0,1,.4.59,7.9,7.9,0,0,0-.67,1.62,5.56,5.56,0,0,0,0,2.54c.58,1.79,1.8,1.56,3.68,1.56q12.29,0,24.53-.09a68.14,68.14,0,0,0,11.44-.94,37.81,37.81,0,0,0,5-1.22q2.75-.88,5-1.72c1.05-.4,2.37-1,3.95-1.64a36.26,36.26,0,0,0,3.77-1.94q3.61-2.16,6.76-4.14a1,1,0,0,1,1.18,0,.24.24,0,0,1,.12.21,1.35,1.35,0,0,1-.59,1.38q-3.31,2.28-7.28,4.74a30.84,30.84,0,0,1-4.61,2.35c-2.07.83-3.88,1.52-5.44,2.05Z" transform="translate(-113.33 -215.82)"/><path class="cls-12" d="M210.2,553.84l1.25,1.63a.16.16,0,0,1-.07.26,30.25,30.25,0,0,1-6.62,1.64,28.81,28.81,0,0,0-2.92.53,6.81,6.81,0,0,1-1.3.27l-1.35.17c-.51.08-1.09.15-1.74.19a.4.4,0,0,1-.41-.3l-.71-2.35a26.19,26.19,0,0,1,4-1.25,11.9,11.9,0,0,1,2.38-.21c1.94-.07,3.69-.17,5.22-.32l1.1-.24a2.67,2.67,0,0,1,1.16,0Z" transform="translate(-113.33 -215.82)"/><path class="cls-13" d="M203.73,582.77a7.53,7.53,0,0,1,.55.88.13.13,0,0,1-.09.2,34.14,34.14,0,0,1-5.82.66q-6.81.18-13.36.27c-6,.09-11.95,0-17.92.08-1.12,0-2.25,0-3-.94-1.41-1.85-2.81-3.72-4.17-5.61a38,38,0,0,1-2.38-3.76,1.56,1.56,0,0,1-.25-.93.44.44,0,0,1,.44-.4q13-.18,25.3-.27c3.15,0,7.49-.19,11.24-.14a2.7,2.7,0,0,1,2.22,1.11c.78,1,1.54,1.94,2.28,2.86,1.59,2,3.42,3.9,4.92,6Z" transform="translate(-113.33 -215.82)"/></g></svg>